<svg width="300" height="214" viewBox="0 0 300 214" fill="none" xmlns="http://www.w3.org/2000/svg">
<g clip-path="url(#clip0_42_196)">
<path opacity="0.1" d="M99.7375 213.88C114.347 213.88 126.191 211.964 126.191 209.601C126.191 207.238 114.347 205.322 99.7375 205.322C85.1277 205.322 73.2842 207.238 73.2842 209.601C73.2842 211.964 85.1277 213.88 99.7375 213.88Z" fill="#6C63FF"/>
<path opacity="0.1" d="M243.534 214C261.765 214 276.544 212.084 276.544 209.721C276.544 207.358 261.765 205.443 243.534 205.443C225.303 205.443 210.525 207.358 210.525 209.721C210.525 212.084 225.303 214 243.534 214Z" fill="#6C63FF"/>
<path opacity="0.1" d="M3.75731 92.4634H31.3102V130.283H5.77444C5.70656 130.671 5.64141 131.062 5.57082 131.453H31.3102V161.953C31.264 161.939 31.2233 161.923 31.1799 161.907C30.4523 161.617 29.7301 161.311 29.008 160.983L28.5465 160.772C27.8225 160.428 27.0986 160.063 26.3746 159.678C26.1221 159.544 25.8696 159.405 25.6199 159.263C21.6008 156.996 17.9497 154.123 14.7931 150.744C14.7008 150.654 14.6139 150.558 14.5216 150.47C14.0818 149.989 13.6502 149.503 13.2321 149.005L12.7706 148.458C12.2765 147.848 11.7987 147.222 11.3344 146.588C11.2665 146.495 11.2014 146.402 11.1308 146.315C9.24276 143.678 7.67509 140.824 6.46129 137.812C6.42328 137.722 6.3907 137.623 6.35541 137.539C5.98257 136.573 5.65227 135.597 5.3645 134.613C5.23961 134.2 5.12016 133.793 5.017 133.364C4.97899 133.238 4.94641 133.115 4.91655 132.992C3.37452 126.931 3.19263 120.634 3.19263 114.382C3.19263 113.652 3.19263 112.919 3.19263 112.195C3.19263 109.666 3.22249 107.12 3.26593 104.578C3.26593 103.919 3.29308 103.263 3.30665 102.601C3.34466 100.922 3.39895 99.2437 3.46954 97.565C3.48583 97.0975 3.50755 96.6327 3.53198 96.168C3.53198 95.9 3.54556 95.6321 3.5727 95.3642C3.63786 94.3909 3.69216 93.4258 3.75731 92.4634Z" fill="#6C63FF"/>
<path opacity="0.1" d="M31.3101 50.3546H16.1967C18.6534 46.4821 21.3378 42.7609 24.2353 39.2109C26.4804 36.4331 28.8505 33.7265 31.3101 31.1183V50.3546Z" fill="#6C63FF"/>
<path opacity="0.1" d="M31.3102 51.5247V91.2932H3.84424C3.84424 91.1784 3.86324 91.0609 3.87139 90.946C3.89582 90.6316 3.92025 90.3172 3.9474 90.0055C3.97726 89.6392 4.00984 89.2701 4.04514 88.9119C4.08043 88.5538 4.11844 88.1164 4.15916 87.7199C4.19988 87.3235 4.23789 86.9216 4.28404 86.5252C4.33019 86.1287 4.37092 85.7323 4.41978 85.3386C4.46865 84.9449 4.51209 84.5458 4.56367 84.1521C4.60439 83.824 4.64783 83.4987 4.69127 83.1706C4.75371 82.7085 4.81886 82.2438 4.88945 81.7844C4.88945 81.7161 4.90845 81.645 4.91931 81.5794C5.41482 78.217 6.08998 74.884 6.94186 71.5949C7.83358 68.1446 8.97226 64.7638 10.349 61.4791C11.8122 58.043 13.5254 54.7204 15.4746 51.5384L31.3102 51.5247Z" fill="#6C63FF"/>
<path opacity="0.1" d="M37.8882 92.4607V130.283H96.7376V92.4607H37.8882ZM37.8882 131.45V163.93C38.2248 164.001 38.5587 164.069 38.89 164.127C39.3406 164.214 39.7886 164.293 40.2474 164.362C40.3342 164.375 40.4238 164.389 40.5189 164.397C40.698 164.427 40.8826 164.452 41.0618 164.477C41.5152 164.539 41.9659 164.591 42.4192 164.632C42.6337 164.654 42.8509 164.673 43.0681 164.69L43.592 164.731C43.8771 164.753 44.1594 164.769 44.4391 164.777C44.6128 164.777 44.7866 164.794 44.9658 164.799C45.1015 164.799 45.2372 164.799 45.3784 164.799C45.5196 164.799 45.7205 164.799 45.8915 164.799C46.125 164.799 46.3585 164.799 46.5892 164.799H46.9014C47.1349 164.799 47.3684 164.799 47.5991 164.777H47.6154C47.7756 164.777 47.9385 164.777 48.1014 164.755C48.1466 164.758 48.1919 164.758 48.2371 164.755C48.3729 164.755 48.5086 164.755 48.6389 164.736H48.7339L49.6434 164.665C49.942 164.638 50.2434 164.602 50.5475 164.57L51.1664 164.496C53.6847 164.14 56.1749 163.607 58.6187 162.899C64.108 161.357 69.478 159.2 74.9647 157.62C82.0585 155.583 89.8963 154.582 96.7512 157.073V131.45H37.8882ZM96.7376 50.3545V0.00273161C90.2946 -0.0675656 83.8691 0.691335 77.6171 2.261C62.7153 6.03117 49.3448 14.2085 37.8882 24.6523V50.3518H40.8419V51.5192H37.8882V91.2932H96.7376V51.522H52.9691V50.3545H96.7376ZM172.327 33.3464C168.64 33.2152 164.975 32.0396 161.66 30.2242C155.321 26.752 150.258 21.3907 144.6 16.866C132.845 7.44191 118.266 1.75522 103.31 0.34448V50.3545H187.321L187.53 50.1331L172.327 33.3464ZM179.98 31.9794L188.095 40.9469V29.6282C185.377 29.9672 182.996 30.7737 179.991 31.9685L179.98 31.9794ZM188.095 171.995V131.45H170.804C170.758 131.278 170.711 131.103 170.657 130.928C170.709 131.103 170.752 131.278 170.801 131.45H103.321V160.772C103.962 161.25 104.594 161.754 105.221 162.265C105.897 162.812 106.565 163.388 107.236 163.954L107.912 164.518C108.235 164.791 108.561 165.064 108.889 165.321C109.541 165.854 110.199 166.379 110.863 166.896C111.191 167.17 111.528 167.416 111.862 167.673C117.163 171.754 122.756 175.438 128.593 178.693C129.902 179.422 131.222 180.134 132.554 180.829C133.442 181.285 134.335 181.739 135.231 182.179C136.578 182.841 137.935 183.479 139.304 184.093C151.918 189.796 165.258 193.709 178.94 195.721C181.979 196.173 185.029 196.528 188.092 196.787V171.992H188.363L188.095 171.995ZM103.321 51.522V91.2932H188.105V51.522H103.321ZM103.321 92.4607V130.283H188.105V92.4607H103.321ZM194.686 29.579V42.2045L205.043 30.7601C201.612 30.2023 198.159 29.8041 194.686 29.5653V29.579ZM194.686 92.4743V130.283H277.149V92.4607L194.686 92.4743ZM276.848 174.997L277.138 131.45H194.686V197.222C199.998 197.446 205.317 197.382 210.622 197.03H210.715C213.248 196.87 215.77 196.636 218.281 196.33H218.338C231.73 194.761 244.826 191.242 257.214 185.884L276.848 174.997ZM293.05 98.6887C292.741 97.9532 292.417 97.2233 292.089 96.5015C291.475 95.1345 290.827 93.8058 290.159 92.4771H283.725V130.283H299.992C299.984 119.576 297.293 108.64 293.058 98.675L293.05 98.6887ZM283.725 131.464V168.919C288.307 164.496 292.179 159.435 294.967 153.65C298.319 146.684 299.853 139.141 299.978 131.458L283.725 131.464ZM283.725 81.4536V91.296H289.556C287.792 87.9078 285.848 84.6177 283.733 81.44L283.725 81.4536ZM227.799 36.999C227.37 36.835 226.941 36.6682 226.509 36.5069C221.957 34.8138 217.305 33.4059 212.58 32.2911L196.73 49.8078L196.426 50.1331L196.63 50.3573H253.039C245.183 44.9113 236.713 40.4227 227.807 36.9854L227.799 36.999ZM254.692 51.5356H195.843L194.686 52.6019V91.2932H204.823H204.84H277.16V72.5518C270.618 64.5838 263.067 57.5136 254.7 51.522L254.692 51.5356Z" fill="#6C63FF"/>
<path opacity="0.1" d="M31.3102 71.584V91.2933H3.84424C3.84424 91.1784 3.86324 91.0609 3.87139 90.946C3.89582 90.6316 3.92025 90.3172 3.9474 90.0056C3.97726 89.6392 4.00984 89.2701 4.04514 88.912C4.08043 88.5538 4.11844 88.1164 4.15916 87.7199C4.19988 87.3235 4.23789 86.9216 4.28404 86.5252C4.33019 86.1288 4.37092 85.7323 4.41978 85.3386C4.46865 84.9449 4.51209 84.5458 4.56367 84.1521C4.60439 83.824 4.64783 83.4987 4.69127 83.1706C4.75371 82.7085 4.81886 82.2438 4.88945 81.7845C4.88945 81.7161 4.90845 81.645 4.91931 81.5794C5.41482 78.217 6.08998 74.884 6.94186 71.5949L31.3102 71.584Z" fill="#6C63FF"/>
<path opacity="0.1" d="M3.75731 92.4634H31.3102V130.283H5.77444C5.70656 130.671 5.64141 131.062 5.57082 131.453H31.3102V161.953C31.264 161.939 31.2233 161.923 31.1799 161.907C30.4523 161.617 29.7301 161.311 29.008 160.983L28.5465 160.772C27.8225 160.428 27.0986 160.063 26.3746 159.678C26.1221 159.544 25.8696 159.405 25.6199 159.263C21.6008 156.996 17.9497 154.123 14.7931 150.744C14.7008 150.654 14.6139 150.558 14.5216 150.47C14.0818 149.989 13.6502 149.503 13.2321 149.005L12.7706 148.458C12.2765 147.848 11.7987 147.222 11.3344 146.588C11.2665 146.495 11.2014 146.402 11.1308 146.315C9.24276 143.678 7.67509 140.824 6.46129 137.812C6.42328 137.722 6.3907 137.623 6.35541 137.539C5.98257 136.573 5.65227 135.597 5.3645 134.613C5.23961 134.2 5.12016 133.793 5.017 133.364C4.97899 133.238 4.94641 133.115 4.91655 132.992C3.37452 126.931 3.19263 120.634 3.19263 114.382C3.19263 113.652 3.19263 112.919 3.19263 112.195C3.19263 109.666 3.22249 107.12 3.26593 104.578C3.26593 103.919 3.29308 103.263 3.30665 102.601C3.34466 100.922 3.39895 99.2437 3.46954 97.565C3.48583 97.0975 3.50755 96.6327 3.53198 96.168C3.53198 95.9 3.54556 95.6321 3.5727 95.3642C3.63786 94.3909 3.69216 93.4258 3.75731 92.4634Z" fill="#6C63FF"/>
<path opacity="0.1" d="M58.6051 57.2169V91.2933H37.8882V57.2169H40.8419V45.6794H52.9664V57.2169H58.6051Z" fill="#6C63FF"/>
<path opacity="0.1" d="M58.6052 92.4607H37.891V130.28H58.6052V92.4607Z" fill="#6C63FF"/>
<path opacity="0.1" d="M37.8882 131.453H58.6051V162.894C56.1613 163.601 53.6711 164.133 51.1529 164.488L50.5339 164.564C50.2298 164.6 49.9285 164.63 49.6298 164.66C49.3312 164.69 49.0217 164.712 48.7204 164.731H48.6254C48.495 164.731 48.3539 164.747 48.2263 164.75H48.0878C47.9249 164.75 47.762 164.766 47.5991 164.772C47.3684 164.786 47.1376 164.788 46.9014 164.791C46.801 164.791 46.706 164.791 46.6055 164.791C46.372 164.791 46.1413 164.791 45.9078 164.791H45.3947C45.2562 164.791 45.1232 164.791 44.9793 164.791L44.4554 164.772C44.1839 164.772 43.8907 164.742 43.6083 164.723L43.0871 164.684L42.4382 164.624C41.9822 164.583 41.5288 164.531 41.0808 164.468L40.5379 164.392L40.2664 164.354C39.813 164.282 39.3651 164.206 38.909 164.118C38.575 164.061 38.2438 163.99 37.9072 163.922L37.8882 131.453Z" fill="#6C63FF"/>
<path opacity="0.1" d="M188.105 53.1924H171.024V91.2905H188.105V53.1924Z" fill="#6C63FF"/>
<path opacity="0.1" d="M188.108 92.4607V130.283H103.321V113.969H148.482V123.593H171.024V92.4607H188.108Z" fill="#6C63FF"/>
<path opacity="0.1" d="M188.377 172.003H188.105V196.814C185.047 196.554 181.997 196.199 178.956 195.751C165.267 193.732 151.922 189.811 139.304 184.098C135.66 182.447 132.091 180.644 128.596 178.691C122.758 175.434 117.165 171.75 111.862 167.67C110.53 166.642 109.215 165.59 107.917 164.515C107.019 163.768 106.126 163.003 105.222 162.259C104.594 161.748 103.962 161.245 103.321 160.764V131.453H170.798C170.752 131.278 170.706 131.103 170.657 130.931C170.709 131.103 170.758 131.278 170.804 131.453H188.105V171.987C188.198 171.99 188.287 171.998 188.377 172.003Z" fill="#6C63FF"/>
<path opacity="0.1" d="M232.656 50.3545H221.525V46.8715H226.515V36.496C226.947 36.6545 227.378 36.8177 227.807 36.9854V46.8715H232.656V50.3545Z" fill="#6C63FF"/>
<path opacity="0.1" d="M259.473 91.2933H204.829C204.829 91.2933 204.829 91.2933 204.848 91.3069L204.823 91.2933H194.686V53.1952H197.558V81.3552H210.685V64.6779H221.528V51.5247H232.659V64.6888H243.502V81.3661H259.473V91.2933Z" fill="#6C63FF"/>
<path opacity="0.1" d="M194.686 92.4607V130.283H259.473V92.4607H194.686ZM277.06 174.803L277.149 144.866H259.473V131.469H194.686V197.222C199.998 197.446 205.317 197.382 210.622 197.03H210.715C213.248 196.87 215.77 196.636 218.281 196.33H218.338C231.73 194.761 244.826 191.242 257.214 185.884" fill="#6C63FF"/>
<path opacity="0.1" d="M284.876 131.453H299.989C299.856 139.133 298.325 146.676 294.975 153.642C292.187 159.43 288.313 164.49 283.735 168.911V144.852H284.876V131.453Z" fill="#6C63FF"/>
<path opacity="0.1" d="M299.997 130.283H284.876V98.675H293.058C297.293 108.64 299.984 119.576 299.997 130.283Z" fill="#6C63FF"/>
<path opacity="0.1" d="M188.108 63.7839H178.956V75.7287H188.108V63.7839Z" fill="#6C63FF"/>
<path opacity="0.1" d="M188.108 88.5429H178.956V91.2933H188.108V88.5429Z" fill="#6C63FF"/>
<path opacity="0.1" d="M188.108 92.4607H178.956V100.485H188.108V92.4607Z" fill="#6C63FF"/>
<path opacity="0.1" d="M188.108 113.302H178.956V125.247H188.108V113.302Z" fill="#6C63FF"/>
<path opacity="0.1" d="M188.108 138.061H178.956V150.006H188.108V138.061Z" fill="#6C63FF"/>
<path opacity="0.1" d="M188.105 171.987C188.198 171.987 188.287 171.987 188.377 172.003H188.105V174.778H178.956V162.82H188.105V171.987Z" fill="#6C63FF"/>
<path opacity="0.1" d="M188.105 187.573V196.801C185.047 196.54 181.997 196.185 178.956 195.737V187.573H188.105Z" fill="#6C63FF"/>
<path opacity="0.1" d="M142.542 129.405H103.321V130.283H142.542V129.405Z" fill="#6C63FF"/>
<path opacity="0.1" d="M142.542 131.45H103.321V134.813H142.542V131.45Z" fill="#6C63FF"/>
<path opacity="0.1" d="M142.542 145.836H103.321V151.244H142.542V145.836Z" fill="#6C63FF"/>
<path opacity="0.1" d="M142.54 162.268V167.675H111.862C110.53 166.651 109.214 165.599 107.915 164.52C107.016 163.774 106.126 163.008 105.219 162.268H142.54Z" fill="#6C63FF"/>
<path opacity="0.1" d="M142.54 178.696V184.098H139.301C135.661 182.445 132.093 180.642 128.596 178.688L142.54 178.696Z" fill="#6C63FF"/>
<path opacity="0.1" d="M218.346 96.127H210.625V103.902H218.346V96.127Z" fill="#6C63FF"/>
<path opacity="0.1" d="M51.1719 59.8989H43.4509V67.6744H51.1719V59.8989Z" fill="#6C63FF"/>
<path opacity="0.1" d="M51.1719 77.9596H43.4509V85.7351H51.1719V77.9596Z" fill="#6C63FF"/>
<path opacity="0.1" d="M51.1719 96.0203H43.4509V103.796H51.1719V96.0203Z" fill="#6C63FF"/>
<path opacity="0.1" d="M51.1719 114.078H43.4509V121.854H51.1719V114.078Z" fill="#6C63FF"/>
<path opacity="0.1" d="M51.1719 132.139H43.4509V139.914H51.1719V132.139Z" fill="#6C63FF"/>
<path opacity="0.1" d="M51.1719 150.2H43.4509V157.975H51.1719V150.2Z" fill="#6C63FF"/>
<path opacity="0.1" d="M247.821 96.127H240.1V103.902H247.821V96.127Z" fill="#6C63FF"/>
<path opacity="0.1" d="M218.346 115.306H210.625V123.081H218.346V115.306Z" fill="#6C63FF"/>
<path opacity="0.1" d="M247.821 115.306H240.1V123.081H247.821V115.306Z" fill="#6C63FF"/>
<path opacity="0.1" d="M218.346 134.482H210.625V142.257H218.346V134.482Z" fill="#6C63FF"/>
<path opacity="0.1" d="M247.821 134.482H240.1V142.257H247.821V134.482Z" fill="#6C63FF"/>
<path opacity="0.1" d="M218.346 153.661H210.625V161.436H218.346V153.661Z" fill="#6C63FF"/>
<path opacity="0.1" d="M247.821 153.661H240.1V161.436H247.821V153.661Z" fill="#6C63FF"/>
<path opacity="0.1" d="M218.346 172.84H210.625V180.615H218.346V172.84Z" fill="#6C63FF"/>
<path opacity="0.1" d="M247.821 172.84H240.1V180.615H247.821V172.84Z" fill="#6C63FF"/>
<path opacity="0.1" d="M210.625 197.03V192.016H218.343V196.317L210.625 197.03Z" fill="#6C63FF"/>
<path opacity="0.1" d="M4.88672 81.5739V86.0221H31.3102V81.5739H4.88672ZM7.52011 85.7433H5.36453V81.8473H7.5364L7.52011 85.7433ZM10.1508 85.7433H7.97892V81.8473H10.1508V85.7433ZM12.776 85.7433H10.6042V81.8473H12.776V85.7433ZM15.4067 85.7433H13.2376V81.8473H15.4094L15.4067 85.7433ZM18.0347 85.7433H15.8628V81.8473H18.0347V85.7433ZM20.6653 85.7433H18.4935V81.8473H20.6653V85.7433ZM23.296 85.7433H21.1241V81.8473H23.296V85.7433ZM25.924 85.7433H23.7521V81.8473H25.924V85.7433ZM28.5519 85.7433H26.3801V81.8473H28.5519V85.7433ZM31.1799 85.7433H29.008V81.8473H31.1799V85.7433Z" fill="#6C63FF"/>
<path opacity="0.1" d="M4.88672 94.5166V98.9648H31.3102V94.5166H4.88672ZM7.52011 98.6832H5.36453V94.7982H7.5364L7.52011 98.6832ZM10.1508 98.6832H7.97892V94.7982H10.1508V98.6832ZM12.776 98.6832H10.6042V94.7982H12.776V98.6832ZM15.4067 98.6832H13.2376V94.7982H15.4094L15.4067 98.6832ZM18.0347 98.6832H15.8628V94.7982H18.0347V98.6832ZM20.6653 98.6832H18.4935V94.7982H20.6653V98.6832ZM23.296 98.6832H21.1241V94.7982H23.296V98.6832ZM25.924 98.6832H23.7521V94.7982H25.924V98.6832ZM28.5519 98.6832H26.3801V94.7982H28.5519V98.6832ZM31.1799 98.6832H29.008V94.7982H31.1799V98.6832Z" fill="#6C63FF"/>
<path opacity="0.1" d="M4.88672 107.465V111.921H31.3102V107.465H4.88672ZM7.52011 111.631H5.36453V107.744H7.5364L7.52011 111.631ZM10.1508 111.631H7.97892V107.744H10.1508V111.631ZM12.776 111.631H10.6042V107.744H12.776V111.631ZM15.4067 111.631H13.2376V107.744H15.4094L15.4067 111.631ZM18.0347 111.631H15.8628V107.744H18.0347V111.631ZM20.6653 111.631H18.4935V107.744H20.6653V111.631ZM23.296 111.631H21.1241V107.744H23.296V111.631ZM25.924 111.631H23.7521V107.744H25.924V111.631ZM28.5519 111.631H26.3801V107.744H28.5519V111.631ZM31.1799 111.631H29.008V107.744H31.1799V111.631Z" fill="#6C63FF"/>
<path opacity="0.1" d="M4.88672 120.413V124.856H31.3102V120.413H4.88672ZM7.52011 124.58H5.36453V120.689H7.5364L7.52011 124.58ZM10.1508 124.58H7.97892V120.689H10.1508V124.58ZM12.776 124.58H10.6042V120.689H12.776V124.58ZM15.4067 124.58H13.2376V120.689H15.4094L15.4067 124.58ZM18.0347 124.58H15.8628V120.689H18.0347V124.58ZM20.6653 124.58H18.4935V120.689H20.6653V124.58ZM23.296 124.58H21.1241V120.689H23.296V124.58ZM25.924 124.58H23.7521V120.689H25.924V124.58ZM28.5519 124.58H26.3801V120.689H28.5519V124.58ZM31.1799 124.58H29.008V120.689H31.1799V124.58Z" fill="#6C63FF"/>
<path opacity="0.1" d="M5.00073 133.358C5.10661 133.777 5.22606 134.195 5.35094 134.608V133.637H7.52281V137.525H6.36086C6.39616 137.615 6.43145 137.714 6.46674 137.798H31.3102V133.358H5.00073ZM10.1589 137.525H7.98705V133.637H10.1589V137.525ZM12.7842 137.525H10.6123V133.637H12.7842V137.525ZM15.4148 137.525H13.2375V133.637H15.4094L15.4148 137.525ZM18.0428 137.525H15.8709V133.637H18.0428V137.525ZM20.6735 137.525H18.5016V133.637H20.6735V137.525ZM23.3041 137.525H21.1323V133.637H23.3041V137.525ZM25.9321 137.525H23.7602V133.637H25.9321V137.525ZM28.5601 137.525H26.3882V133.637H28.5601V137.525ZM31.188 137.525H29.0162V133.637H31.188V137.525Z" fill="#6C63FF"/>
<path opacity="0.1" d="M11.1362 146.307C11.2041 146.394 11.2693 146.492 11.3398 146.58H12.776V148.447C12.9307 148.633 13.0828 148.819 13.2402 148.994V146.569H15.4121V150.47H14.5325C14.6194 150.561 14.7035 150.656 14.804 150.744H31.3183V146.307H11.1362ZM18.0346 150.47H15.8628V146.585H18.0346V150.47ZM20.6653 150.47H18.4934V146.585H20.6653V150.47ZM23.296 150.47H21.1241V146.585H23.296V150.47ZM25.9239 150.47H23.7521V146.585H25.9239V150.47ZM28.5519 150.47H26.38V146.585H28.5519V150.47ZM31.1798 150.47H29.008V146.585H31.1798V150.47Z" fill="#6C63FF"/>
<path opacity="0.1" d="M25.6307 159.252C25.8778 159.394 26.1303 159.525 26.3855 159.667V159.531H28.5573V160.761L29.0189 160.977V159.531H31.1907V161.896C31.2324 161.917 31.276 161.933 31.321 161.945V159.252H25.6307Z" fill="#6C63FF"/>
<path opacity="0.1" d="M204.829 91.2932H204.845H204.829ZM188.105 171.984H188.377H188.105ZM170.657 130.928C170.709 131.103 170.752 131.278 170.801 131.45C170.758 131.278 170.711 131.103 170.657 130.928ZM204.829 91.285H204.845H204.829ZM40.8528 50.3463V51.5138H52.9799V50.3463H40.8528ZM188.105 171.984H188.377H188.105ZM170.657 130.928C170.709 131.103 170.752 131.278 170.801 131.45C170.758 131.278 170.711 131.103 170.657 130.928ZM204.829 91.285H204.845H204.829ZM188.105 171.976H188.377H188.105ZM170.657 130.928C170.709 131.103 170.752 131.278 170.801 131.45C170.758 131.278 170.711 131.103 170.657 130.928Z" fill="#6C63FF"/>
<path d="M125.317 103.801C125.317 103.801 124.247 103.651 124.247 102.082C124.247 100.512 123.481 97.5814 123.481 97.5814C123.481 97.5677 122.819 92.4771 121.904 91.6678C120.989 90.8585 119.814 86.1069 119.814 86.1069C119.814 86.1069 119.613 83.5287 119.203 82.9737C118.793 82.4187 118.239 81.0599 117.422 79.1215C116.605 77.1831 113.198 75.8408 113.198 75.8408C113.198 75.8408 107.038 72.2428 105.292 71.0699C105.133 70.9736 104.985 70.8609 104.85 70.7337C104.546 70.3318 103.221 70.3236 103.221 70.3236C103.082 69.4432 102.949 68.4317 102.906 67.5158C102.906 67.4173 102.906 67.3189 102.892 67.2205C104.839 66.0618 106.305 64.2349 107.021 62.0751C107.054 61.9712 107.081 61.8619 107.111 61.758C107.228 61.7193 107.335 61.6565 107.426 61.5737C107.517 61.4908 107.59 61.3897 107.64 61.2768C107.798 60.9241 107.801 60.5113 107.996 60.1832C108.224 59.795 108.658 59.5872 109.001 59.2947C109.864 58.5565 110.087 57.3125 110.046 56.1807C110.019 55.2648 109.872 54.3407 109.929 53.4303L109.945 53.2006C109.962 53.0639 109.981 52.9272 110.005 52.796C110.138 52.118 110.429 51.4782 110.591 50.8056C110.754 50.1331 110.771 49.3758 110.391 48.7962C109.834 47.9459 108.675 47.7764 107.657 47.6889C106.503 47.5905 105.471 47.719 104.733 46.7539C104.387 46.2495 103.998 45.7765 103.571 45.3404C103.419 45.1982 101.942 44.2906 101.942 44.2304C100.501 43.5581 98.8667 43.4319 97.3404 43.875C96.5748 44.0992 95.8526 44.4655 95.0762 44.6487C93.4011 45.0479 91.4736 44.6159 90.051 45.581C89.2583 46.1278 88.7832 46.9972 88.338 47.8447C87.976 48.5428 87.6086 49.24 87.2357 49.9362C86.6358 51.0818 86.0249 52.2465 85.7724 53.515C85.7194 53.7911 85.6867 54.0707 85.6747 54.3516V54.3653C85.6747 54.4665 85.6747 54.5676 85.6747 54.6688V54.7973C85.6747 54.893 85.6747 54.9859 85.691 55.0707C85.7073 55.1554 85.7046 55.1828 85.7127 55.2402C85.7209 55.2976 85.7344 55.4261 85.7507 55.5136C85.767 55.6011 85.7996 55.7542 85.8322 55.8745C85.8457 55.9264 85.8647 55.9756 85.881 56.0248C85.9082 56.1178 85.9408 56.208 85.9761 56.2982C85.9951 56.3447 86.0141 56.3939 86.0358 56.4404C86.0765 56.5361 86.1254 56.629 86.1742 56.7138C86.196 56.7521 86.2123 56.7876 86.234 56.8231C86.3097 56.9503 86.3931 57.0726 86.4837 57.1895C87.0647 57.9195 87.9199 58.3843 88.5524 59.0677C88.5524 59.0951 88.5524 59.1224 88.5524 59.147C88.5524 59.2236 88.5524 59.2974 88.5524 59.374C88.586 60.8983 88.9889 62.3913 89.726 63.7231C90.4632 65.0549 91.5123 66.1851 92.7822 67.0154C92.7822 67.1193 92.7957 67.226 92.8012 67.3299C92.8541 68.1414 92.8441 68.9559 92.7713 69.7658C92.6607 69.6347 92.5224 69.5303 92.3664 69.4602C92.2103 69.3902 92.0407 69.3564 91.87 69.3612C91.7533 69.3555 91.6364 69.3656 91.5225 69.3913L91.498 69.3721V69.3967C90.9008 69.5444 90.165 70.1705 89.4619 71.9503C89.4619 71.9503 87.3226 74.3781 85.6937 74.2769C84.0648 74.1758 79.941 76.8031 79.941 76.8031C79.941 76.8031 75.9176 79.4332 75.0543 82.1125C74.5717 83.6318 73.9932 85.1185 73.3222 86.5634L68.3486 96.8842L67.431 105.073C67.431 105.073 67.9387 108.714 67.8383 109.269C67.7378 109.824 69.926 114.83 69.926 114.83C69.926 114.83 77.1556 127.622 80.1093 128.279L80.3211 128.128C80.4474 128.195 80.5815 128.245 80.7201 128.279L81.3283 127.847C81.3648 128.328 81.3493 128.812 81.2821 129.29C80.8749 130.553 81.4341 138.796 82.1454 140.412C82.8567 142.028 82.6042 163.213 82.6042 163.213L82.5038 165.084C82.5038 165.084 82.5038 165.144 82.5282 165.248L82.5038 165.69L82.5771 165.729C82.6532 166.322 82.6284 166.924 82.5038 167.509C82.2486 168.329 82.1454 170.647 82.1454 170.647C82.1454 170.647 80.112 183.738 81.0758 186.368C82.0396 188.998 82.8594 191.879 82.8594 191.879C82.8594 191.879 83.8775 195.16 82.9083 195.721C81.9391 196.281 79.1835 197.222 79.7509 198.589C80.2668 199.852 82.2242 203.236 82.5146 203.731L82.4902 203.991L82.0911 208.346C82.1558 208.921 82.3106 209.482 82.5499 210.008C82.987 210.957 83.8368 211.941 85.4521 211.835C85.7236 211.816 86.0385 211.783 86.3426 211.742C89.299 211.343 92.9396 210.014 92.9396 210.014C92.7506 209.893 92.5773 209.749 92.4238 209.585C92.2785 209.443 92.1633 209.273 92.0854 209.085C92.0074 208.897 91.9683 208.695 91.9704 208.491C92.0139 207.698 90.5397 203.92 90.1732 202.99C90.1162 202.856 90.0863 202.78 90.0863 202.78C90.0863 202.78 93.4473 199.242 92.888 196.106C92.888 196.106 89.1687 193.919 90.3931 192.719C91.6175 191.518 93.8056 188.071 93.8056 188.071C93.8056 188.071 93.9061 175.18 93.8056 173.255C93.7009 171.92 93.7638 170.576 93.993 169.256C94.0337 169.056 94.0826 168.862 94.1341 168.671C95.8274 168.925 97.5368 169.056 99.2489 169.061C99.8733 169.061 100.509 169.061 101.149 169.023C101.149 169.205 101.157 169.402 101.174 169.614C101.315 172.807 101.578 178.406 101.793 180.487C102.097 183.47 103.777 191.508 103.777 191.508C103.777 191.508 100.571 193.58 104.336 198.687C104.336 198.687 104.336 200.538 104.087 200.806C103.82 201.682 103.605 202.573 103.443 203.474C103.286 204.437 103.221 205.41 103.476 205.916C104.087 207.124 107.752 207.026 107.752 207.026L107.841 207.009C108.533 206.937 109.232 207.004 109.898 207.207C110.564 207.409 111.184 207.742 111.721 208.188C113.114 209.314 118.399 208.819 121.261 208.461C122.382 208.319 123.131 208.188 123.131 208.188C123.168 208.06 123.18 207.926 123.169 207.794C123.139 207.086 122.588 205.533 118.853 204.147C118.853 204.147 115.34 201.768 115.389 199.696H115.315H114.908C115.204 199.679 115.394 199.696 115.394 199.696C115.394 199.696 114.018 194.638 114.58 194.228C115.142 193.818 113.458 188.213 113.458 188.213C113.458 188.213 112.495 178.808 112.443 178.149C112.445 177.584 112.53 177.022 112.695 176.482L112.443 171.325C112.443 171.325 112.394 169.611 112.443 169.053C112.435 168.569 112.396 168.086 112.326 167.607C112.302 167.416 112.277 167.216 112.25 167.019C113.567 166.683 114.422 166.371 114.422 166.371L114.27 148.423C115.389 146.235 115.595 141.437 115.589 138.033C115.589 135.846 115.492 134.228 115.492 134.228L117.02 131.715C117.02 131.715 117.373 128.708 116.814 128.049C116.567 127.751 116.678 127.442 116.882 127.188C116.987 127.103 117.099 127.027 117.216 126.958C117.216 126.958 117.199 126.933 117.18 126.898C117.287 126.808 117.401 126.727 117.52 126.655C117.52 126.655 116.977 125.807 117.463 125.449C117.919 125.761 118.326 125.996 118.636 126.187C118.614 126.387 118.592 126.502 118.592 126.502L118.722 126.228C119.021 126.398 119.203 126.502 119.203 126.502C119.203 126.502 121.597 121.698 121.546 120.99C121.494 120.282 123.175 117.299 123.175 117.299C123.175 117.299 123.378 115.732 124.296 115.076C125.214 114.42 125.007 109.666 125.007 109.666C125.007 109.666 125.262 107.189 125.873 106.177C126.484 105.165 125.317 103.801 125.317 103.801ZM79.5012 101.693L79.5473 102.839C79.2759 102.399 79.0804 102.082 79.0804 102.082L79.5012 101.693Z" fill="url(#paint0_linear_42_196)"/>
<path d="M119.333 124.426L118.747 126.942C118.747 126.942 114.05 124.528 113.203 121.46C112.356 118.393 114.62 117.228 114.62 117.228L118.997 119.095L119.333 124.426Z" fill="white"/>
<path opacity="0.1" d="M119.333 124.426L118.747 126.942C118.747 126.942 114.05 124.528 113.203 121.46C112.356 118.393 114.62 117.228 114.62 117.228L118.997 119.095L119.333 124.426Z" fill="black"/>
<path d="M92.9749 210.03C92.9749 210.03 88.6311 211.638 85.6448 211.84C84.0593 211.947 83.2259 210.968 82.7969 210.025C82.5626 209.5 82.4115 208.942 82.349 208.371L82.7372 204.037L82.9435 201.73L89.2881 200.07L90.1867 202.837L90.2709 203.048C90.632 203.972 92.079 207.731 92.0355 208.516C92.0338 208.717 92.0723 208.916 92.1488 209.101C92.2253 209.287 92.3382 209.455 92.4808 209.596C92.6264 209.761 92.7925 209.907 92.9749 210.03Z" fill="white"/>
<path d="M122.645 207.827C122.656 207.958 122.643 208.091 122.607 208.218C122.607 208.218 113.317 209.779 111.417 208.218C110.881 207.762 110.256 207.423 109.583 207.225C108.91 207.026 108.203 206.971 107.507 207.064C107.507 207.064 103.913 207.162 103.313 205.97C103.063 205.47 103.128 204.499 103.283 203.542C103.441 202.646 103.651 201.759 103.913 200.888L104.057 200.773L104.912 200.081L114.924 199.783H115C114.952 201.845 118.399 204.21 118.399 204.21C122.062 205.577 122.602 207.121 122.645 207.827Z" fill="white"/>
<path opacity="0.1" d="M122.645 207.827C122.655 207.958 122.641 208.091 122.605 208.218C122.605 208.218 113.317 209.779 111.417 208.218C110.881 207.762 110.257 207.424 109.584 207.225C108.912 207.027 108.205 206.972 107.51 207.064C107.51 207.064 103.913 207.162 103.316 205.97C103.066 205.467 103.128 204.499 103.283 203.542C104.668 203.682 106.853 204.029 107.711 204.858C109.009 206.118 111.208 207.376 112.557 207.474C113.613 207.542 119.931 207.745 122.645 207.827Z" fill="black"/>
<path opacity="0.1" d="M92.9749 210.03C92.9749 210.03 88.6311 211.638 85.6448 211.84C84.0594 211.947 83.2259 210.968 82.7997 210.022C83.9046 210.397 85.4385 210.79 86.2448 210.429C87.2004 210.003 90.5885 209.727 92.4889 209.609C92.6336 209.769 92.7967 209.91 92.9749 210.03Z" fill="black"/>
<path d="M99.4199 80.4803C95.8363 79.0778 91.2265 74.4437 92.3776 72.2784C92.6332 71.7319 92.7852 71.1422 92.8255 70.5395C92.8996 69.7214 92.9105 68.8988 92.8581 68.079C92.7774 66.7363 92.6169 65.3997 92.3776 64.0764C92.3776 64.0764 103.565 64.3307 102.914 65.9902C102.724 66.4769 102.694 67.3216 102.746 68.2676C102.797 69.2136 102.933 70.2826 103.074 71.1875C103.27 72.4287 103.465 73.3747 103.465 73.3747C103.465 73.3747 102.781 74.3398 102.379 74.3917C101.977 74.4437 104.562 82.4788 99.4199 80.4803Z" fill="#CF6F80"/>
<path opacity="0.1" d="M90.2628 203.048L90.1786 203.141C86.8339 199.067 82.7889 204.144 82.7889 204.144L82.7291 204.037L82.9355 201.73L89.28 200.07L90.1786 202.837L90.2628 203.048Z" fill="black"/>
<path opacity="0.1" d="M115.003 200.07C115.003 200.07 112.56 200.018 111.257 201.178C109.953 202.337 103.655 201.429 103.926 201.178C104.007 201.053 104.055 200.91 104.068 200.762L104.923 200.07L114.935 199.772C114.973 199.956 115.003 200.07 115.003 200.07Z" fill="black"/>
<path d="M94.4246 168.08C94.2426 168.533 94.1044 169.003 94.0119 169.483C93.7856 170.796 93.7226 172.134 93.8246 173.463C93.9251 175.377 93.8246 188.202 93.8246 188.202C93.8246 188.202 91.6772 191.622 90.4799 192.828C89.2827 194.034 92.9233 196.199 92.9233 196.199C93.4663 199.316 90.1759 202.837 90.1759 202.837C86.8312 198.763 82.7861 203.843 82.7861 203.843C82.7861 203.843 80.5871 200.016 80.0387 198.649C79.4903 197.282 82.1861 196.336 83.1336 195.781C84.0811 195.226 83.0875 191.953 83.0875 191.953C83.0875 191.953 82.2866 189.085 81.3364 186.469C80.3862 183.852 82.3843 170.828 82.3843 170.828C82.3843 170.828 82.4875 168.515 82.7345 167.708C82.8592 167.126 82.884 166.527 82.8078 165.937C82.7915 165.737 82.7725 165.57 82.759 165.458C82.7454 165.346 82.7345 165.294 82.7345 165.294L82.7725 165.228L84.13 162.68C84.13 162.68 95.0762 166.475 94.4246 168.08Z" fill="#CF6F80"/>
<path d="M115.003 199.77C115.003 199.77 112.56 199.718 111.257 200.863C109.954 202.009 103.655 201.115 103.927 200.863C104.198 200.612 104.176 198.75 104.176 198.75C100.482 193.67 103.633 191.609 103.633 191.609C103.633 191.609 101.983 183.612 101.684 180.645C101.475 178.573 101.217 173.004 101.079 169.824C101.019 168.457 100.984 167.517 100.984 167.517L104.003 166.904L104.391 166.825L111.672 165.354C111.672 165.354 111.873 166.721 112.009 167.839C112.076 168.317 112.114 168.798 112.123 169.28C112.074 169.827 112.123 171.538 112.123 171.538L112.37 176.67C112.208 177.208 112.125 177.767 112.123 178.33C112.172 178.983 113.119 188.339 113.119 188.339C113.119 188.339 114.767 193.922 114.205 194.324C113.643 194.725 115.003 199.77 115.003 199.77Z" fill="#CF6F80"/>
<path opacity="0.1" d="M102.914 65.9902C102.724 66.4768 102.694 67.3216 102.746 68.2676C101.247 69.1764 99.5244 69.641 97.7754 69.6081C96.0264 69.5752 94.322 69.0462 92.8582 68.0817C92.7776 66.7381 92.6172 65.4006 92.3777 64.0764C92.3777 64.0764 103.566 64.3252 102.914 65.9902Z" fill="black"/>
<path d="M107.239 59.9481C107.241 60.9333 107.087 61.9126 106.783 62.8489C106.102 64.9469 104.708 66.7351 102.845 67.8977C100.982 69.0602 98.7711 69.5221 96.6028 69.2018C94.4345 68.8815 92.4485 67.7996 90.9957 66.1473C89.5429 64.4949 88.7169 62.3786 88.6637 60.1723C88.6637 60.0958 88.6637 60.0247 88.6637 59.9481C88.6426 58.7062 88.8673 57.4726 89.3247 56.319C89.782 55.1655 90.4628 54.1153 91.3275 53.2295C92.1921 52.3438 93.2232 51.6403 94.3607 51.16C95.4981 50.6798 96.7191 50.4325 97.9525 50.4325C99.1859 50.4325 100.407 50.6798 101.544 51.16C102.682 51.6403 103.713 52.3438 104.578 53.2295C105.442 54.1153 106.123 55.1655 106.58 56.319C107.038 57.4726 107.262 58.7062 107.241 59.9481H107.239Z" fill="#CF6F80"/>
<path opacity="0.1" d="M99.4199 80.4804C95.8363 79.0778 91.2265 74.4437 92.3776 72.2784C92.6332 71.732 92.7852 71.1422 92.8255 70.5396L97.7313 74.5995L100.766 77.1066L103.074 71.1902C103.27 72.4315 103.465 73.3774 103.465 73.3774C103.465 73.3774 102.781 74.3425 102.379 74.3945C101.977 74.4464 104.562 82.4789 99.4199 80.4804Z" fill="black"/>
<path d="M112.106 98.4235L108.01 167.73L102.667 168.083L88.832 127.896L91.1016 80.1851L91.5794 70.1049L97.7312 75.1928L100.769 77.6999L103.145 71.6113L107.562 75.4881L112.106 98.4235Z" fill="#CD8A9A"/>
<path opacity="0.1" d="M94.4247 168.08C94.2427 168.533 94.1045 169.003 94.012 169.482C90.1243 168.878 86.3486 167.69 82.8106 165.958L82.7373 165.92L82.7617 165.48L82.7753 165.25L84.1327 162.702C84.1327 162.702 95.0762 166.475 94.4247 168.08Z" fill="black"/>
<path opacity="0.1" d="M104.065 169.493C103.071 169.664 102.069 169.779 101.062 169.838C101.003 168.471 100.967 167.53 100.967 167.53L103.986 166.918L104.065 169.493Z" fill="black"/>
<path opacity="0.1" d="M111.992 167.853C110.062 168.359 107.081 168.928 104.413 168.572L104.375 166.839L111.656 165.368C111.656 165.368 111.857 166.721 111.992 167.853Z" fill="black"/>
<path opacity="0.1" d="M104.364 168.889C93.2328 170.803 83.0386 165.316 83.0386 165.316L83.1363 163.457C83.1363 163.457 83.3888 142.38 82.6884 140.765C81.988 139.149 81.4423 130.955 81.8387 129.698C82.235 128.44 80.3916 109.581 80.3916 109.581L80.093 101.926L69.1631 97.4666L74.0498 87.2087C74.7098 85.7705 75.2775 84.2911 75.7493 82.7796C76.599 80.1167 80.5437 77.5003 80.5437 77.5003C80.5437 77.5003 84.5888 74.8866 86.1878 74.985C87.7869 75.0835 89.8827 72.6721 89.8827 72.6721C91.4302 68.6996 92.831 70.4986 92.831 70.4986C92.831 70.6872 92.831 70.4986 92.755 71.0864C92.212 75.4471 101.535 89.2264 101.668 89.4697L102.556 111.249L103.454 138.81L104.364 168.889Z" fill="black"/>
<path d="M104.065 168.889C92.9342 170.803 82.7373 165.316 82.7373 165.316L82.8377 163.457C82.8377 163.457 83.0902 142.38 82.387 140.765C81.6839 139.149 81.1409 130.955 81.54 129.698C81.9391 128.44 80.093 109.581 80.093 109.581L79.7917 101.926L68.8563 97.4502L73.743 87.1923C74.4016 85.7534 74.9692 84.2741 75.4425 82.7632C76.2895 80.1003 80.2369 77.4839 80.2369 77.4839C80.2369 77.4839 84.282 74.8702 85.8783 74.9686C87.4746 75.067 89.5732 72.6557 89.5732 72.6557C91.1234 68.6832 92.831 70.4821 92.831 70.4821C92.831 70.6708 92.6681 70.7555 92.755 71.0699C93.9495 75.2994 101.236 89.2099 101.369 89.4533L102.268 111.232L103.166 138.793L104.065 168.889Z" fill="white"/>
<path opacity="0.1" d="M101.065 90.0739C99.8679 89.5708 93.526 82.2793 93.526 82.2793V80.6198C93.2952 80.073 91.9242 80.4065 90.8112 80.7893L91.289 70.7091L91.8319 71.1629C93.021 75.3897 100.927 89.8306 101.065 90.0739Z" fill="black"/>
<path d="M101.367 89.4697C100.167 88.9666 93.8247 81.6751 93.8247 81.6751V80.0156C93.5939 79.4688 92.2229 79.8023 91.1099 80.1851L91.5904 70.1049L92.1334 70.5587C93.3252 74.7854 101.233 89.2291 101.367 89.4697Z" fill="white"/>
<path opacity="0.1" d="M83.0386 125.834C83.1879 125.834 90.7785 125.031 90.7785 125.031C90.7785 125.031 95.3748 134.132 95.0734 136.347C94.7721 138.561 94.2264 140.521 92.3776 140.174C90.5288 139.827 82.4277 140.448 82.4277 140.448L83.0386 125.834Z" fill="black"/>
<path d="M82.7373 125.23C82.8866 125.23 90.4773 124.426 90.4773 124.426C90.4773 124.426 95.0708 133.531 94.7722 135.742C94.4735 137.954 93.9224 139.917 92.0763 139.57C90.2303 139.223 82.1265 139.843 82.1265 139.843L82.7373 125.23Z" fill="white"/>
<path d="M88.4574 120.957C88.4574 120.957 95.4236 124.727 95.573 125.878C95.7223 127.029 92.0274 125.375 91.2292 125.176C90.7039 125.048 90.1691 124.964 89.6302 124.924L84.3064 125.069L88.4574 120.957Z" fill="#CF6F80"/>
<path opacity="0.1" d="M99.1213 90.5442C99.5261 90.5442 99.8543 90.2137 99.8543 89.806C99.8543 89.3983 99.5261 89.0678 99.1213 89.0678C98.7165 89.0678 98.3883 89.3983 98.3883 89.806C98.3883 90.2137 98.7165 90.5442 99.1213 90.5442Z" fill="black"/>
<path d="M99.1213 90.2434C99.5261 90.2434 99.8543 89.9129 99.8543 89.5052C99.8543 89.0976 99.5261 88.7671 99.1213 88.7671C98.7165 88.7671 98.3883 89.0976 98.3883 89.5052C98.3883 89.9129 98.7165 90.2434 99.1213 90.2434Z" fill="#3F3D56"/>
<path opacity="0.1" d="M100.471 122.499C100.875 122.499 101.204 122.168 101.204 121.761C101.204 121.353 100.875 121.023 100.471 121.023C100.066 121.023 99.7375 121.353 99.7375 121.761C99.7375 122.168 100.066 122.499 100.471 122.499Z" fill="black"/>
<path d="M100.471 122.196C100.875 122.196 101.204 121.865 101.204 121.457C101.204 121.05 100.875 120.719 100.471 120.719C100.066 120.719 99.7375 121.05 99.7375 121.457C99.7375 121.865 100.066 122.196 100.471 122.196Z" fill="#3F3D56"/>
<path opacity="0.1" d="M99.8515 106.522C100.256 106.522 100.585 106.191 100.585 105.783C100.585 105.376 100.256 105.045 99.8515 105.045C99.4467 105.045 99.1185 105.376 99.1185 105.783C99.1185 106.191 99.4467 106.522 99.8515 106.522Z" fill="black"/>
<path d="M99.8515 106.221C100.256 106.221 100.585 105.89 100.585 105.483C100.585 105.075 100.256 104.744 99.8515 104.744C99.4467 104.744 99.1185 105.075 99.1185 105.483C99.1185 105.89 99.4467 106.221 99.8515 106.221Z" fill="#3F3D56"/>
<path d="M116.749 124.771C116.749 124.771 117.248 125.526 116.749 125.878C116.249 126.231 116.798 127.084 116.798 127.084C116.798 127.084 115.552 127.819 116.1 128.481C116.648 129.143 116.301 132.131 116.301 132.131L114.802 134.63C114.802 134.63 114.892 136.24 114.897 138.416C114.897 141.812 114.699 146.585 113.602 148.762L113.754 166.617C113.754 166.617 108.507 168.547 104.114 167.96L103.462 139.308C103.462 139.308 104.413 123.059 104.763 119.943C104.968 118.325 105.051 116.693 105.013 115.063C105.013 115.063 104.863 110.185 104.361 107.921C104.361 107.921 103.818 98.1146 103.764 95.3997C103.739 94.1011 103.807 90.3118 103.883 86.7084C103.967 82.7687 104.062 79.0532 104.062 79.0532L103.071 71.1575C103.071 71.1575 104.062 71.0563 104.361 71.4582C104.495 71.584 104.64 71.6967 104.795 71.7945C106.506 72.9592 112.549 76.5407 112.549 76.5407C112.549 76.5407 115.894 77.8803 116.694 79.7996C117.495 81.7189 118.052 83.0804 118.44 83.6272C118.828 84.174 119.04 86.7439 119.04 86.7439C119.04 86.7439 120.191 91.4737 121.09 92.2748C121.988 93.0758 122.645 98.172 122.645 98.172L114.704 104.46C114.704 104.46 114.007 114.92 113.857 115.325C113.708 115.73 116.749 124.771 116.749 124.771Z" fill="white"/>
<path d="M117.05 124.771C117.05 124.771 117.547 125.525 117.05 125.878C116.553 126.231 117.096 127.084 117.096 127.084C117.096 127.084 115.858 127.827 116.401 128.489C116.944 129.151 116.602 132.139 116.602 132.139L115.104 134.638C115.104 134.638 115.193 136.248 115.201 138.424C115.201 141.82 115.003 146.594 113.906 148.77L114.056 166.625C114.056 166.625 108.8 168.556 104.413 167.968L103.764 139.316C103.764 139.316 104.714 123.068 105.064 119.951C105.269 118.333 105.352 116.701 105.311 115.071C105.311 115.071 105.162 110.193 104.662 107.93C104.662 107.93 104.119 98.1227 104.062 95.4079C104.038 94.1093 104.108 90.3199 104.182 86.7166C104.266 82.7769 104.361 79.0614 104.361 79.0614L103.052 71.059C103.052 71.059 104.361 71.059 104.662 71.4664C104.795 71.5937 104.94 71.7064 105.097 71.8027C106.807 72.9673 112.853 76.5489 112.853 76.5489C112.853 76.5489 116.195 77.8885 116.996 79.8078C117.797 81.727 118.353 83.0886 118.744 83.6354C119.135 84.1822 119.341 86.7521 119.341 86.7521C119.341 86.7521 120.492 91.4819 121.391 92.283C122.29 93.084 122.939 98.1692 122.939 98.1692L114.998 104.457C114.998 104.457 114.3 114.918 114.148 115.322C113.996 115.727 117.05 124.771 117.05 124.771Z" fill="white"/>
<path opacity="0.1" d="M107.54 81.3826L108.257 83.4877L104.483 87.3153C104.567 83.3784 104.662 79.6601 104.662 79.6601L103.354 71.6578C103.354 71.6578 104.662 71.6578 104.964 72.0651C105.096 72.1921 105.241 72.304 105.398 72.3987L108.607 81.7216L107.54 81.3826Z" fill="black"/>
<path d="M107.239 80.7783L107.958 82.8835L104.184 86.7111C104.269 82.7714 104.364 79.0559 104.364 79.0559L103.052 71.0536C103.052 71.0536 104.364 71.0536 104.662 71.4609C104.795 71.5875 104.941 71.7001 105.097 71.7972L108.308 81.1174L107.239 80.7783Z" fill="white"/>
<path opacity="0.1" d="M107.239 59.9481C107.241 60.9333 107.087 61.9126 106.783 62.8489C106.731 62.857 106.679 62.8546 106.628 62.8419C106.578 62.8292 106.531 62.8065 106.489 62.7751C106.419 60.3145 105.216 58.0043 103.736 56.0385C103.321 55.445 102.817 54.9194 102.243 54.4802C101.663 54.0411 100.941 53.8355 100.218 53.9033C99.4036 54.0154 98.6842 54.5731 97.8616 54.6442C96.7756 54.7344 95.8037 53.9771 94.7259 53.9388C94.2878 53.943 93.8556 54.0413 93.4581 54.227C93.0606 54.4128 92.7071 54.6818 92.421 55.016C91.8548 55.6906 91.4342 56.4764 91.1858 57.3235C90.7589 58.6081 90.5265 59.95 90.4962 61.3042C90.4826 62.0697 90.4094 63.0294 89.7035 63.3082C89.7566 62.7452 89.6931 62.1773 89.5169 61.6403C89.3407 61.1033 89.0558 60.609 88.68 60.1887L88.6637 60.1723C88.6637 60.0958 88.6637 60.0247 88.6637 59.9481C88.6426 58.7063 88.8673 57.4726 89.3247 56.3191C89.782 55.1655 90.4628 54.1153 91.3275 53.2295C92.1921 52.3438 93.2232 51.6403 94.3607 51.16C95.4981 50.6798 96.7191 50.4325 97.9525 50.4325C99.1859 50.4325 100.407 50.6798 101.544 51.16C102.682 51.6403 103.713 52.3438 104.578 53.2295C105.442 54.1153 106.123 55.1655 106.58 56.3191C107.038 57.4726 107.262 58.7063 107.241 59.9481H107.239Z" fill="black"/>
<path d="M101.798 45.0943C100.387 44.4261 98.7829 44.2997 97.2861 44.7389C96.5341 44.9631 95.8256 45.3267 95.0627 45.5099C93.4338 45.9063 91.5334 45.4771 90.1353 46.4367C89.3588 46.9835 88.8919 47.8475 88.4575 48.6868L87.3716 50.7701C86.7797 51.9102 86.1825 53.0694 85.9354 54.3243C85.6884 55.5792 85.8377 56.9844 86.6277 57.9933C87.2032 58.7287 88.053 59.1908 88.6774 59.8825C89.0515 60.3032 89.3352 60.7972 89.5109 61.3335C89.6865 61.8698 89.7503 62.4369 89.6982 62.9992C90.4067 62.7258 90.4746 61.7634 90.4909 60.9979C90.5212 59.6437 90.7536 58.3018 91.1805 57.0172C91.4283 56.1699 91.849 55.3839 92.4157 54.7098C92.702 54.3758 93.0556 54.107 93.453 53.9212C93.8504 53.7355 94.2825 53.6371 94.7206 53.6326C95.8066 53.6708 96.7812 54.4254 97.8563 54.3352C98.6707 54.2669 99.3929 53.7064 100.213 53.597C100.936 53.5281 101.658 53.7339 102.238 54.1739C102.812 54.6125 103.315 55.1382 103.728 55.7323C105.211 57.698 106.413 60.0027 106.484 62.4688C106.791 62.6957 107.233 62.4004 107.385 62.0505C107.537 61.7005 107.543 61.2904 107.736 60.9569C107.958 60.5714 108.384 60.3664 108.718 60.0766C109.565 59.3411 109.777 58.1026 109.745 56.979C109.712 55.8553 109.495 54.7152 109.707 53.6107C109.834 52.9327 110.122 52.2984 110.279 51.6286C110.437 50.9587 110.456 50.2069 110.084 49.63C109.541 48.7825 108.398 48.6157 107.402 48.5364C106.27 48.438 105.257 48.5638 104.535 47.6041C104.196 47.1034 103.814 46.6332 103.395 46.1989C103.251 46.0567 101.798 45.1545 101.798 45.0943Z" fill="#512E4E"/>
<path opacity="0.1" d="M72.2905 102.749L69.4535 97.4666L68.5549 105.617C68.5549 105.617 69.0545 109.236 68.954 109.791C68.8536 110.346 71.001 115.322 71.001 115.322C71.001 115.322 78.0949 128.046 80.9916 128.702L90.7786 121.66L88.1832 118.341C88.1832 118.341 87.2846 117.988 87.0593 118.341C87.0593 118.341 82.2404 109.991 81.7409 109.387C81.2414 108.783 81.3391 107.577 81.3391 107.577C81.3391 107.577 80.5898 106.773 80.8396 106.018C81.0893 105.264 79.3926 102.647 79.3926 102.647L80.94 101.19L72.2905 102.749Z" fill="black"/>
<path d="M69.6029 96.8651L68.8536 97.4666L67.955 105.617C67.955 105.617 68.4545 109.236 68.354 109.791C68.2536 110.346 70.4037 115.322 70.4037 115.322C70.4037 115.322 77.4949 128.046 80.3916 128.702L90.1813 121.66L87.5832 118.341C87.5832 118.341 86.6846 117.988 86.4593 118.341C86.4593 118.341 81.6405 109.991 81.1409 109.387C80.6414 108.783 80.7418 107.577 80.7418 107.577C80.7418 107.577 79.9925 106.773 80.2423 106.018C80.4921 105.264 78.7926 102.647 78.7926 102.647L80.3401 101.19L69.6029 96.8651Z" fill="white"/>
<path opacity="0.1" d="M116.1 128.793C116.643 129.457 116.301 132.44 116.301 132.44L114.802 134.939C114.802 134.939 114.892 136.552 114.897 138.725L112.378 139.518C112.15 139.59 111.909 139.605 111.674 139.564C111.439 139.522 111.217 139.425 111.027 139.28C110.837 139.134 110.685 138.946 110.582 138.729C110.479 138.512 110.429 138.274 110.437 138.033L110.871 123.923L116.749 126.187C116.249 126.537 116.798 127.396 116.798 127.396C116.798 127.396 115.551 128.128 116.1 128.793Z" fill="black"/>
<path d="M116.401 128.489C116.944 129.154 116.602 132.139 116.602 132.139L115.104 134.638C115.104 134.638 115.193 136.248 115.201 138.424L112.636 139.231C112.413 139.301 112.177 139.316 111.947 139.275C111.717 139.234 111.5 139.139 111.314 138.997C111.128 138.854 110.978 138.669 110.878 138.457C110.777 138.245 110.728 138.012 110.735 137.777L111.172 123.623L117.053 125.886C116.551 126.236 117.099 127.092 117.099 127.092C117.099 127.092 115.858 127.828 116.401 128.489Z" fill="white"/>
<path d="M118.348 121.764C118.348 121.764 117.949 124.331 116.95 124.481C115.951 124.631 115.503 128.634 114.506 128.492C113.51 128.35 114.17 124.771 114.205 124.076C114.24 123.382 113.119 120.506 113.958 119.852C114.797 119.199 117.452 119.852 117.452 119.852L118.348 121.764Z" fill="#CF6F80"/>
<path opacity="0.1" d="M120.473 101.994L122.358 98.1665C122.358 98.1665 123.107 101.084 123.107 102.642C123.107 104.2 124.155 104.354 124.155 104.354C124.155 104.354 125.303 105.721 124.698 106.716C124.092 107.711 123.848 110.188 123.848 110.188C123.848 110.188 124.046 114.915 123.148 115.568C122.249 116.222 122.062 117.783 122.062 117.783C122.062 117.783 120.411 120.749 120.463 121.455C120.514 122.16 118.166 126.936 118.166 126.936C118.166 126.936 119.314 121.001 112.622 118.436C112.622 118.436 112.571 116.421 113.07 115.869C113.57 115.317 114.349 115.065 113.86 112.274C113.371 109.482 113.719 106.147 113.719 105.477C113.719 104.807 115.218 100.63 115.218 100.63L120.473 101.994Z" fill="black"/>
<path d="M121.288 97.6197L122.933 98.1665C122.933 98.1665 123.685 101.084 123.685 102.642C123.685 104.2 124.733 104.353 124.733 104.353C124.733 104.353 125.881 105.72 125.276 106.716C124.671 107.711 124.429 110.188 124.429 110.188C124.429 110.188 124.627 114.915 123.729 115.568C122.83 116.222 122.629 117.783 122.629 117.783C122.629 117.783 120.981 120.749 121.033 121.455C121.084 122.16 118.733 126.936 118.733 126.936C118.733 126.936 119.884 121.001 113.19 118.436C113.19 118.436 113.141 116.421 113.64 115.869C114.14 115.317 114.919 115.065 114.43 112.274C113.942 109.482 114.289 106.147 114.289 105.477C114.289 104.807 115.788 100.63 115.788 100.63L121.288 97.6197Z" fill="white"/>
<path opacity="0.1" d="M84.9498 196.828C84.9498 196.828 87.5724 195.168 89.2936 196.374C91.0148 197.58 84.9498 196.828 84.9498 196.828Z" fill="black"/>
<path opacity="0.1" d="M105.327 191.696C105.327 191.696 107.649 191.395 109.598 193.509C111.547 195.622 105.327 191.696 105.327 191.696Z" fill="black"/>
<g opacity="0.1">
<path opacity="0.1" d="M108.724 59.4779C108.39 59.7677 107.961 59.9755 107.738 60.3609C107.548 60.6918 107.543 61.0991 107.391 61.4545C107.239 61.81 106.796 62.0998 106.489 61.8756C106.419 59.415 105.213 57.1048 103.734 55.1363C103.32 54.5422 102.817 54.0165 102.243 53.5779C101.662 53.138 100.939 52.9323 100.215 53.001C99.4009 53.1131 98.6842 53.6709 97.8616 53.7392C96.7757 53.8322 95.8011 53.0749 94.7233 53.0366C94.2853 53.041 93.8533 53.1396 93.4562 53.3259C93.0592 53.5121 92.7063 53.7817 92.4211 54.1165C91.8544 54.7897 91.4336 55.5747 91.1859 56.4213C90.7592 57.7059 90.5268 59.0478 90.4963 60.402C90.48 61.1647 90.4094 62.1162 89.709 62.4005C89.7253 62.6025 89.7253 62.8055 89.709 63.0074C90.4148 62.734 90.4854 61.7717 90.5017 61.0062C90.532 59.6519 90.7644 58.31 91.1913 57.0255C91.4391 56.1781 91.8598 55.3922 92.4265 54.718C92.7123 54.3841 93.0654 54.1153 93.4623 53.9295C93.8593 53.7438 94.291 53.6454 94.7287 53.6408C95.8146 53.6791 96.792 54.4337 97.867 54.3434C98.6815 54.2751 99.4036 53.7146 100.221 53.6053C100.945 53.5365 101.668 53.7422 102.249 54.1821C102.823 54.6207 103.326 55.1464 103.739 55.7405C105.219 57.7062 106.424 60.011 106.495 62.4771C106.802 62.704 107.244 62.4087 107.396 62.0588C107.548 61.7088 107.554 61.2987 107.744 60.9652C107.966 60.5797 108.395 60.3746 108.729 60.0848C109.576 59.3494 109.788 58.1109 109.755 56.9872C109.755 56.9517 109.755 56.9161 109.755 56.8833C109.704 57.8566 109.446 58.849 108.724 59.4779Z" fill="black"/>
<path opacity="0.1" d="M88.6827 59.2838C88.0583 58.5921 87.2059 58.13 86.6331 57.3973C86.1507 56.7487 85.8752 55.9679 85.843 55.1582C85.7576 56.17 86.0382 57.1788 86.6331 57.9988C87.2059 58.7342 88.0583 59.1963 88.6827 59.888C89.2822 60.5646 89.6422 61.4222 89.7062 62.3267C89.7478 61.7762 89.6785 61.223 89.5027 60.7001C89.3268 60.1772 89.0479 59.6955 88.6827 59.2838Z" fill="black"/>
<path opacity="0.1" d="M110.285 51.0299C110.125 51.6997 109.839 52.3367 109.709 53.012C109.632 53.4632 109.604 53.9216 109.625 54.379C109.634 54.1184 109.662 53.8589 109.709 53.6025C109.839 52.9245 110.125 52.2902 110.285 51.6204C110.378 51.2509 110.408 50.8682 110.374 50.4885C110.357 50.6709 110.327 50.8518 110.285 51.0299Z" fill="black"/>
</g>
<path opacity="0.1" d="M36.034 207.944C50.6438 207.944 62.4874 206.029 62.4874 203.666C62.4874 201.302 50.6438 199.387 36.034 199.387C21.4243 199.387 9.58069 201.302 9.58069 203.666C9.58069 206.029 21.4243 207.944 36.034 207.944Z" fill="#6C63FF"/>
<path d="M36.8864 121.701H35.1842V160.296H36.8864V121.701Z" fill="#535461"/>
<path d="M47.5828 160.179L47.477 161.918L47.3249 164.378L47.2625 165.401L47.1132 167.861L47.048 168.884L46.896 171.344L45.1802 199.25C45.1056 200.451 44.5796 201.578 43.709 202.401C42.8385 203.225 41.689 203.684 40.4944 203.685H31.5735C30.3792 203.684 29.2299 203.225 28.3599 202.401C27.4898 201.577 26.9643 200.45 26.8904 199.25L25.1828 171.325L25.0307 168.865L24.9683 167.842L24.8162 165.382L24.7538 164.359L24.6018 161.898L24.4932 160.16C24.4743 159.825 24.5236 159.49 24.6379 159.175C24.7522 158.86 24.9292 158.572 25.158 158.329C25.3868 158.085 25.6625 157.892 25.9684 157.759C26.2742 157.627 26.6037 157.559 26.9365 157.56H45.1829C45.5145 157.562 45.842 157.634 46.1452 157.769C46.4484 157.904 46.7208 158.101 46.9457 158.346C47.1706 158.592 47.3432 158.881 47.4527 159.196C47.5623 159.511 47.6066 159.846 47.5828 160.179Z" fill="#3F3D56"/>
<path d="M47.477 161.918L47.325 164.37H24.743L24.5909 161.918H47.477Z" fill="#9D9CB5"/>
<path d="M47.2625 165.392L47.1132 167.848H24.9574L24.8054 165.392H47.2625Z" fill="#9D9CB5"/>
<path d="M47.0481 168.873L46.8987 171.325H25.1719L25.0199 168.873H47.0481Z" fill="#9D9CB5"/>
<path d="M21.9928 136.166C31.9047 143.389 36.0421 154.686 36.0421 154.686C36.0421 154.686 24.0968 154.273 14.1823 147.05C4.26769 139.827 0.138428 128.533 0.138428 128.533C0.138428 128.533 12.0783 128.943 21.9928 136.166Z" fill="#CF6F80"/>
<path d="M0.130371 128.533C0.130371 128.533 12.5317 135.464 16.509 141.202C20.4862 146.941 36.0422 154.686 36.0422 154.686" stroke="#535461" stroke-width="2" stroke-miterlimit="10"/>
<path d="M28.3918 121.616C33.7861 125.545 36.0422 131.693 36.0422 131.693C36.0422 131.693 29.5401 131.469 24.1431 127.54C18.746 123.612 16.4954 117.46 16.4954 117.46C16.4954 117.46 22.9947 117.684 28.3918 121.616Z" fill="#CF6F80"/>
<path d="M16.4954 117.46C16.4954 117.46 23.2444 121.233 25.4082 124.355C27.5719 127.478 36.0422 131.693 36.0422 131.693" stroke="#535461" stroke-width="2" stroke-miterlimit="10"/>
<path d="M43.8745 131.382C37.6765 138.241 36.3652 147.206 36.3652 147.206C36.3652 147.206 45.1043 145.046 51.2968 138.184C57.4894 131.321 58.8061 122.359 58.8061 122.359C58.8061 122.359 50.0724 124.522 43.8745 131.382Z" fill="#CF6F80"/>
<path d="M58.8115 122.362C58.8115 122.362 50.7376 129.394 48.6852 134.239C46.6327 139.083 36.3652 147.206 36.3652 147.206" stroke="#535461" stroke-width="2" stroke-miterlimit="10"/>
<path d="M271.394 128.968C271.394 128.968 266.912 106.511 268.627 103.716C268.627 103.716 268.69 101.119 268.587 97.8083C268.587 97.6826 268.587 97.5568 268.587 97.4283C268.889 97.631 269.203 97.8136 269.529 97.9751C271.11 98.793 272.924 99.029 274.66 98.6422L273.302 97.1194C272.977 96.7557 272.637 96.362 272.567 95.8809C272.496 95.3997 272.691 94.9704 272.86 94.5412C274.149 91.2604 274.217 87.1348 271.733 84.6305C269.635 82.5253 269.124 79.8078 266.846 77.8858C265.182 76.4778 264.267 74.4136 263.404 72.4178C262.674 70.7309 261.938 69.0304 261.52 67.2424C261.194 65.8453 261.064 64.399 260.616 63.0348C260.168 61.6705 259.329 60.3445 258.018 59.7348C257.551 59.5189 257.032 59.3958 256.606 59.1088C256.047 58.7287 255.71 58.1109 255.306 57.5695C253.251 54.8355 246.368 56.4459 243.111 57.5559C242.225 57.8354 241.405 58.293 240.7 58.901L240.73 58.8518C240.754 58.8108 240.784 58.7697 240.811 58.7287C240.455 59.0191 240.147 59.3653 239.899 59.754C239.424 60.5113 239.226 61.3944 238.829 62.2146C238.352 63.1851 235.694 65.8945 236.837 66.9854C236.917 67.0586 237.009 67.1178 237.108 67.1603C237.537 67.3402 238.01 67.3878 238.466 67.297L238.417 67.4146C238.026 68.3771 237.826 69.407 237.828 70.4466C237.828 74.9385 241.506 78.5802 246.048 78.5802C246.902 78.581 247.751 78.4492 248.565 78.1892C248.584 78.2931 248.6 78.397 248.619 78.5009C248.619 78.5419 248.633 78.5829 248.638 78.6239L248.494 78.8263C248.487 78.8138 248.479 78.8019 248.47 78.7907L244.207 84.7891C243.556 85.2511 239.804 87.9851 239.592 90.0356C239.37 92.2802 239.147 94.9076 239.147 94.9076L239.117 95.4708C238.931 95.6275 238.713 95.7417 238.479 95.8054C238.244 95.8691 237.999 95.8809 237.76 95.8399C236.429 95.6211 236.429 100.761 236.429 100.761C236.429 100.761 235.544 101.581 234.936 100.87C234.328 100.16 232.721 102.568 232.721 102.568L222.649 103.006L222.418 103.019L221.875 101.327C221.817 101.148 221.691 101 221.525 100.915C221.358 100.829 221.165 100.813 220.987 100.87C220.945 100.884 220.905 100.902 220.865 100.922L220.827 100.944L220.757 100.993L220.721 101.026C220.702 101.044 220.684 101.063 220.667 101.084L220.635 101.122L220.618 101.138C220.556 101.226 220.514 101.326 220.497 101.433C220.48 101.539 220.488 101.648 220.521 101.751L220.987 103.202C219.044 103.596 217.056 104.706 218.677 107.763L210.462 106.234L213.12 108.482L226.841 111.333C226.659 111.661 226.778 112.137 227.346 112.807C229.789 115.697 234.241 116.481 236.033 116.684C236.506 117.75 237.097 118.759 237.795 119.691L237.64 122.57C237.64 122.57 233.104 144.513 232.273 145.626C232.692 145.147 233.076 144.638 233.421 144.103C232.105 148.611 230.264 154.782 229.781 155.706C229.004 157.182 228.285 163.156 229.17 163.539C229.441 163.656 230.218 163.599 231.326 163.514V164.009L231.277 182.761C231.277 182.761 231.499 194.263 230.888 195.36C230.278 196.456 230.115 198.755 230.115 198.755C230.115 198.755 227.671 203.291 225.736 205.115C225.723 205.129 225.708 205.142 225.692 205.153L225.633 204.726C225.633 204.726 223.306 207.684 218.159 207.518C218.159 207.518 215.061 209.546 219.654 209.656C224.248 209.765 230.115 209.492 230.115 209.492C230.115 209.492 234.211 203.203 237.643 204.024V208.789H238.694V203.947C239.181 203.624 239.598 203.205 239.919 202.715C240.241 202.224 240.46 201.674 240.564 201.096C240.654 200.5 240.588 199.891 240.373 199.328C240.158 198.766 239.801 198.27 239.337 197.889C239.129 197.699 238.962 197.468 238.846 197.21C238.731 196.952 238.67 196.673 238.666 196.39L238.628 196.423C238.628 196.328 238.604 196.229 238.593 196.128C238.292 193.667 237.914 188.59 239.247 184.834C241.075 179.683 241.628 172.509 240.298 168.239C239.869 166.873 239.516 165.485 239.242 164.08C239.209 163.902 239.18 163.733 239.152 163.574C240.062 163.698 240.962 163.881 241.848 164.121C244.93 164.977 251.671 165.135 257.426 165.089C257.44 165.248 257.456 165.414 257.475 165.581C257.577 166.74 257.792 167.887 258.116 169.004C258.838 171.191 259.169 180.834 259.169 180.834C259.169 180.834 260.1 188.763 259.592 191.989C259.321 193.782 259.049 195.584 258.895 197.394V197.429C258.895 197.429 257.369 201.804 256.253 204.18C256.226 204.24 256.196 204.3 256.169 204.357C255.872 204.385 255.579 204.45 255.298 204.551C255.298 204.551 253.802 207.559 252.311 208.056C250.821 208.554 251.315 210.192 254.689 209.59C258.064 208.989 263.16 208.496 263.16 208.496L263.38 205.429L264.417 204.122L264.145 207.181L265.25 206.963L265.104 203.242L266.8 201.104C266.8 201.104 268.85 199.267 265.804 195.652V195.731C265.771 195.68 265.741 195.625 265.706 195.573V195.557C265.201 194.769 264.799 193.301 265.535 190.695C266.865 185.988 267.639 181.714 267.639 181.714C267.639 181.714 270.609 170.267 267.039 164.851H267.197C266.831 164.089 266.572 163.279 266.428 162.445C266.41 162.347 266.394 162.246 266.379 162.142C269.021 161.989 271.614 161.507 273.729 160.469C273.72 160.458 272.447 133.293 271.394 128.968ZM237.857 110.021V110.076L237.314 110.103L237.857 110.021ZM235.995 110.281C235.906 110.301 235.822 110.341 235.751 110.398C235.517 110.731 235.371 111.117 235.324 111.522L234.477 111.331C234.477 111.331 233.883 111.202 233.028 111.057L232.623 110.647C233.736 110.554 234.893 110.417 235.995 110.281Z" fill="url(#paint1_linear_42_196)"/>
<path d="M264.02 203.28L263.697 207.154L264.78 206.935L264.618 202.733L264.02 203.28Z" fill="#1D2366"/>
<path d="M239.307 184.886C238.001 188.631 238.37 193.686 238.664 196.142C238.772 197.049 238.873 197.602 238.873 197.602C238.873 197.602 236.921 202.08 236.758 202.249C236.595 202.419 231.013 205.85 231.013 205.85L227.112 208.144C227.112 208.144 223.154 206.397 225.052 205.795C225.439 205.639 225.788 205.399 226.075 205.093C227.975 203.275 230.362 198.755 230.362 198.755C230.362 198.755 230.525 196.461 231.122 195.371C231.719 194.28 231.502 182.816 231.502 182.816L231.548 164.129V161.693L238.973 161.748C239.02 162.575 239.127 163.397 239.293 164.209C239.56 165.609 239.905 166.993 240.328 168.353C241.636 172.616 241.093 179.754 239.307 184.886Z" fill="#FFB0B1"/>
<path opacity="0.1" d="M238.873 197.602C238.873 197.602 236.921 202.08 236.758 202.249C236.595 202.419 231.013 205.85 231.013 205.85L227.112 208.144C227.112 208.144 223.154 206.397 225.052 205.795C225.439 205.639 225.788 205.399 226.075 205.093L226.243 206.287L227.544 206.233L238.675 196.147C238.772 197.049 238.873 197.602 238.873 197.602Z" fill="black"/>
<path d="M238.737 196.401L227.544 206.555L226.243 206.61L225.972 204.696C225.972 204.696 223.697 207.644 218.642 207.48C218.642 207.48 215.607 209.5 220.105 209.609C224.604 209.719 230.348 209.445 230.348 209.445C230.348 209.445 234.361 203.157 237.719 203.977V208.726H238.751V203.934C239.23 203.608 239.64 203.189 239.954 202.7C240.269 202.212 240.482 201.664 240.58 201.09C240.67 200.499 240.607 199.895 240.397 199.336C240.187 198.776 239.838 198.281 239.383 197.897C239.18 197.705 239.018 197.473 238.907 197.216C238.796 196.959 238.738 196.682 238.737 196.401Z" fill="#CF6F80"/>
<path d="M265.052 190.726C264.33 193.323 264.723 194.786 265.217 195.57V195.587C265.851 196.555 266.292 197.639 266.515 198.777L266.559 199.023L261.466 206.501L258.702 207.594C258.702 207.594 254.258 206.066 255.07 205.629C255.273 205.522 255.591 204.953 255.955 204.169C257.04 201.804 258.539 197.44 258.539 197.44V197.405C258.696 195.603 258.946 193.807 259.223 192.019C259.72 188.801 258.808 180.902 258.808 180.902C258.808 180.902 258.482 171.298 257.776 169.113C257.458 168.003 257.246 166.864 257.144 165.712C256.997 164.345 256.964 163.219 256.964 163.219C256.964 163.219 259.891 159.118 265.256 163.547C265.684 163.9 266.062 164.313 266.377 164.772C270.082 170.081 267.099 181.777 267.099 181.777C267.099 181.777 266.352 186.031 265.052 190.726Z" fill="#FFB0B1"/>
<path opacity="0.1" d="M266.567 199.023L261.474 206.501L258.71 207.594C258.71 207.594 254.266 206.066 255.078 205.629C255.281 205.522 255.599 204.953 255.963 204.169C257.844 204.152 258.819 205.957 258.819 205.957L261.202 205.574C261.202 205.574 264.346 199.351 265.052 198.971C265.758 198.591 265.161 196.131 265.161 196.131V195.505C265.18 195.526 265.196 195.551 265.218 195.573V195.589C265.851 196.558 266.292 197.642 266.515 198.78L266.567 199.023Z" fill="black"/>
<path d="M258.982 206.118C258.982 206.118 257.624 203.608 255.023 204.535C255.023 204.535 253.56 207.542 252.097 208.029C250.633 208.516 251.122 210.156 254.429 209.557C257.735 208.959 262.72 208.464 262.72 208.464L262.937 205.404L266.298 201.093C266.298 201.093 268.302 199.264 265.321 195.663V196.289C265.321 196.289 265.918 198.75 265.212 199.13C264.506 199.51 261.373 205.735 261.373 205.735L258.982 206.118Z" fill="#CF6F80"/>
<path opacity="0.1" d="M238.981 161.743C239.028 162.57 239.135 163.392 239.302 164.203C236.245 163.752 233.408 163.976 231.548 164.124V161.688L238.981 161.743Z" fill="black"/>
<path opacity="0.1" d="M266.678 165.453C266.678 165.453 262.334 165.666 257.155 165.71C257.008 164.343 256.975 163.216 256.975 163.216C256.975 163.216 259.902 159.115 265.266 163.544C265.695 163.898 266.073 164.31 266.388 164.769C266.472 165.002 266.569 165.23 266.678 165.453Z" fill="black"/>
<path d="M266.678 164.96C266.678 164.96 247.653 165.887 241.854 164.25C236.055 162.612 230.307 164.031 229.441 163.651C228.575 163.271 229.279 157.319 230.039 155.845C230.799 154.372 234.969 139.469 234.969 139.469L238.981 118.401L243.208 117.228L243.507 117.143L250.872 115.098L256.269 113.597C256.269 113.597 267.001 155.791 266.081 158.902C265.747 160.093 265.693 161.347 265.923 162.563C266.064 163.393 266.318 164.2 266.678 164.96Z" fill="#CF6F80"/>
<path d="M224.995 103.993C224.995 103.993 221.194 108.094 224.072 110.379C226.949 112.665 228.842 110.598 228.842 110.598L224.995 103.993Z" fill="#C7DAF5"/>
<path opacity="0.1" d="M224.995 103.993C224.995 103.993 221.194 108.094 224.072 110.379C226.949 112.665 228.842 110.598 228.842 110.598L224.995 103.993Z" fill="black"/>
<path d="M255.702 77.03C255.702 77.03 255.257 77.4565 254.586 78.0854C253.631 78.9848 252.216 80.2999 250.962 81.4017C249.224 82.9245 247.791 84.0427 248.304 83.0886C248.817 82.1344 248.719 80.4721 248.464 78.9165C248.445 78.8126 248.429 78.7087 248.41 78.6075C248.199 77.4651 247.918 76.3366 247.571 75.2283C247.571 75.2283 250.378 71.5757 251.931 70.1349C252.509 69.5881 252.914 69.3639 252.938 69.744C252.965 70.2552 253.346 71.3844 253.818 72.5818C253.831 72.6201 253.845 72.6557 253.861 72.6939C254.176 73.5141 254.532 74.3562 254.844 75.0834C255.322 76.1989 255.702 77.03 255.702 77.03Z" fill="#FFB0B1"/>
<path opacity="0.1" d="M253.861 72.694C253.598 74.1229 252.957 75.4542 252.008 76.5488C251.059 77.6434 249.835 78.4611 248.464 78.9165C248.248 77.6685 247.95 76.4364 247.571 75.2284C247.571 75.2284 252.857 68.3524 252.938 69.744C252.957 70.2717 253.37 71.4418 253.861 72.694Z" fill="black"/>
<path opacity="0.1" d="M247.938 80.7537L248.622 79.7832C248.622 79.7832 249.075 82.5664 250.742 81.3388C252.409 80.1113 252.49 90.5769 252.49 90.5769L250.701 117.515L237.773 116.736L238.14 103.719L239.603 97.1576L243.222 87.6188L245.375 84.4665L247.938 80.7537Z" fill="black"/>
<path d="M252.49 90.7437L250.861 115.101L250.69 117.682L243.483 117.247L243.211 117.231L237.781 116.903L238.148 103.883L239.611 97.3217L243.23 87.7828L245.383 84.6305L247.946 80.9041L248.63 79.9363C248.63 79.9363 249.083 82.7195 250.75 81.4919L250.785 81.4673C252.414 80.4284 252.49 90.7437 252.49 90.7437Z" fill="#1D2366"/>
<path d="M239.793 95.0415C239.793 95.0415 239.144 96.4085 237.841 96.1871C236.538 95.9656 236.541 101.108 236.541 101.108C236.541 101.108 235.675 101.928 235.077 101.218C234.48 100.507 232.906 102.91 232.906 102.91L223.04 103.347C223.04 103.347 227.43 105.368 226.569 111.481C226.569 111.481 241.474 110.551 241.962 109.133C242.451 107.714 239.793 95.0415 239.793 95.0415Z" fill="white"/>
<path opacity="0.03" d="M239.793 95.0415C239.793 95.0415 239.144 96.4085 237.841 96.1871C236.538 95.9656 236.541 101.108 236.541 101.108C236.541 101.108 235.675 101.928 235.077 101.218C234.48 100.507 232.906 102.91 232.906 102.91L223.04 103.347C223.04 103.347 227.43 105.368 226.569 111.481C226.569 111.481 241.474 110.551 241.962 109.133C242.451 107.714 239.793 95.0415 239.793 95.0415Z" fill="black"/>
<path d="M211.122 106.56L213.723 108.796L235.132 113.326L232.477 110.598L211.122 106.56Z" fill="white"/>
<path d="M247.978 81.6149C247.623 82.1617 246.605 84.9613 245.755 87.4055C245.046 89.4423 244.454 91.2331 244.454 91.2331C244.454 91.2331 243.073 100.294 242.367 101.931C241.661 103.569 242.044 109.955 242.044 109.955L239.413 125.728C239.413 125.728 238.221 133.861 236.381 138.72C234.564 143.501 232.542 145.743 232.479 145.814C233.294 144.704 237.733 122.849 237.733 122.849L239.199 95.2849C239.199 95.2849 239.413 92.6657 239.63 90.4266C239.847 88.1874 244.245 85.1308 244.245 85.1308L248.486 79.0587C248.912 79.6328 248.627 80.6334 247.978 81.6149Z" fill="white"/>
<path d="M236.921 117.039C236.921 117.039 230.677 116.766 227.652 113.108C224.628 109.45 234.643 111.648 234.643 111.648L237.247 112.249L236.921 117.039Z" fill="#FFB0B1"/>
<path opacity="0.1" d="M266.081 158.905C265.747 160.096 265.693 161.35 265.923 162.566C259.112 163.052 251.825 161.199 251.825 161.199C250.468 162.456 246.892 164.31 246.892 164.31L244.943 139.977C243.697 136.697 243.208 119.508 243.208 119.508C243.208 119.508 243.32 118.609 243.48 117.261C243.48 117.228 243.48 117.192 243.493 117.16C243.979 113.395 244.943 106.327 245.416 105.373C246.067 104.061 243.412 100.57 243.412 100.57L244.62 90.1942L244.767 88.942C247.313 87.7965 249.265 84.1384 249.265 84.1384L250.764 81.4947C252.393 80.4421 252.477 90.7574 252.477 90.7574L250.848 115.114L256.245 113.614C256.245 113.614 267.001 155.793 266.081 158.905Z" fill="black"/>
<path d="M273.072 160.586C265.647 164.299 252.151 160.86 252.151 160.86C250.794 162.117 247.218 163.971 247.218 163.971L245.266 139.638C244.023 136.358 243.534 119.169 243.534 119.169C243.534 119.169 245.103 106.344 245.755 105.034C245.945 104.652 245.853 104.083 245.627 103.47C244.52 100.556 244.112 97.4181 244.438 94.3143L244.959 89.8552L245.103 88.6057C247.653 87.4575 249.605 83.7994 249.605 83.7994L250.962 81.4044L253.46 76.9918L254.643 74.903L254.844 75.0862L256.378 76.486C256.378 76.486 257.03 77.0328 258.007 77.853C260.133 79.6574 263.806 82.8343 265.701 84.7782C267.368 86.4896 267.894 93.1469 268.046 98.1583C268.147 101.458 268.087 104.045 268.087 104.045C266.407 106.83 270.802 129.197 270.802 129.197C271.825 133.52 273.072 160.586 273.072 160.586Z" fill="white"/>
<path opacity="0.03" d="M258.819 83.7447C258.819 83.7447 253.723 93.5133 254.315 97.226C254.907 100.939 256.59 105.141 255.778 106.122C255.499 106.494 255.139 106.796 254.725 107.004C254.311 107.213 253.854 107.321 253.392 107.323C252.577 107.377 250.405 108.906 250.405 109.07C250.405 109.234 248.399 109.234 246.605 109.999C244.81 110.765 242.161 111.199 242.161 111.199C242.161 111.199 237.002 111.035 236.522 111.528C236.041 112.02 235.547 114.964 236.576 117.313C237.605 119.661 238.748 121.414 239.611 121.734C240.475 122.053 245.953 120.205 250.397 119.768C254.841 119.33 259.666 115.784 259.666 115.784C259.666 115.784 264.979 113.871 265.91 110.653C266.841 107.435 264.772 89.7486 264.772 89.7486C264.772 89.7486 263.209 81.5056 258.819 83.7447Z" fill="black"/>
<path opacity="0.03" d="M258.167 82.9245C258.167 82.9245 253.071 92.6958 253.669 96.4058C254.266 100.116 255.944 104.321 255.129 105.305C254.851 105.677 254.491 105.979 254.078 106.188C253.664 106.396 253.208 106.505 252.746 106.505C251.931 106.56 249.759 108.088 249.759 108.252C249.759 108.416 247.753 108.416 245.958 109.179C244.164 109.942 241.514 110.379 241.514 110.379C241.514 110.379 236.356 110.215 235.878 110.707C235.4 111.199 234.901 114.147 235.933 116.492C236.964 118.838 238.104 120.593 238.968 120.913C239.831 121.233 245.31 119.385 249.754 118.95C254.198 118.516 259.022 114.964 259.022 114.964C259.022 114.964 264.333 113.05 265.253 109.835C266.173 106.62 264.115 88.9284 264.115 88.9284C264.115 88.9284 262.557 80.6881 258.167 82.9245Z" fill="black"/>
<path d="M258.659 83.2526C258.659 83.2526 253.563 93.0239 254.16 96.7339C254.757 100.444 256.435 104.649 255.623 105.63C255.345 106.003 254.985 106.306 254.571 106.515C254.157 106.724 253.7 106.833 253.237 106.833C252.423 106.888 250.251 108.416 250.251 108.577C250.251 108.739 248.247 108.742 246.45 109.507C244.653 110.273 242.006 110.707 242.006 110.707C242.006 110.707 236.848 110.543 236.367 111.035C235.886 111.527 235.392 114.475 236.421 116.82C237.45 119.166 238.593 120.921 239.457 121.241C240.32 121.561 245.798 119.713 250.243 119.276C254.687 118.838 259.511 115.292 259.511 115.292C259.511 115.292 264.824 113.378 265.755 110.16C266.686 106.943 264.631 89.2564 264.631 89.2564C264.631 89.2564 263.046 81.0271 258.659 83.2526Z" fill="white"/>
<path opacity="0.1" d="M258.547 109.461C258.547 109.461 254.475 108.64 255.892 110.007C257.309 111.374 257.301 112.572 259.036 112.517C260.771 112.462 258.547 109.461 258.547 109.461Z" fill="black"/>
<path opacity="0.1" d="M265.429 138.873C265.429 138.873 263.589 140.128 267.11 143.02C270.631 145.913 265.429 138.873 265.429 138.873Z" fill="black"/>
<path opacity="0.1" d="M261.916 149.188C261.916 149.352 261.265 155.203 263.703 156.666C266.141 158.128 261.916 149.188 261.916 149.188Z" fill="black"/>
<path d="M223.208 103.334C221.243 103.402 216.997 104.006 219.198 108.143C221.145 111.804 224.416 109.357 226.257 107.5C225.808 105.77 224.717 104.278 223.208 103.334Z" fill="#FFB0B1"/>
<path d="M226.281 107.466L226.361 107.383L226.281 107.466Z" fill="#FFB0B1"/>
<path opacity="0.1" d="M258.007 78.0198C255.922 79.4551 254.174 80.6663 253.832 80.9178C252.898 81.615 251.117 85.7077 249.968 87.7965C249.053 89.4779 246.081 89.9099 244.959 90.0165L245.103 88.7671C247.653 87.6188 249.605 83.9607 249.605 83.9607L254.643 75.0643L256.378 76.6528C256.378 76.6528 257.03 77.1996 258.007 78.0198Z" fill="black"/>
<path d="M258.007 77.8557C255.922 79.291 254.174 80.5022 253.832 80.7565C252.898 81.4509 251.117 85.5437 249.968 87.6324C249.053 89.3138 246.081 89.7458 244.959 89.8524L245.103 88.603C247.653 87.4547 249.605 83.7967 249.605 83.7967L254.643 74.9003L256.378 76.4832C256.378 76.4832 257.03 77.0246 258.007 77.8557Z" fill="#DCE7FF"/>
<path d="M253.994 70.8895C253.996 72.5307 253.501 74.1335 252.577 75.4853C251.486 77.0837 249.862 78.2352 248 78.7308C246.137 79.2264 244.16 79.0333 242.427 78.1865C240.694 77.3398 239.32 75.8955 238.554 74.1158C237.788 72.336 237.681 70.3386 238.252 68.4861C238.824 66.6336 240.035 65.0487 241.668 64.0189C243.3 62.9892 245.245 62.5828 247.149 62.8735C249.054 63.1643 250.791 64.1329 252.047 65.6036C253.303 67.0744 253.994 68.9497 253.994 70.8895Z" fill="#FFB0B1"/>
<path opacity="0.1" d="M268.046 98.161C266.944 97.478 266.046 96.5067 265.448 95.3505C264.995 94.4483 264.694 93.4066 263.92 92.7669C263.222 92.1927 262.291 92.0533 261.422 91.7963C258.566 90.946 256.172 88.3214 256.082 85.3249C256.039 83.9142 256.476 82.5062 256.278 81.1091C256.165 80.3185 255.853 79.5701 255.371 78.9356C255.132 78.6322 254.869 78.3479 254.586 78.0853C254.206 77.7245 253.807 77.3745 253.46 76.9918C253.241 76.7548 253.049 76.4933 252.89 76.2126C252.76 75.9828 252.656 75.74 252.577 75.4881C252.034 73.8149 252.528 71.83 251.931 70.1377L251.899 70.0447C251.673 69.4432 251.214 68.8417 250.576 68.7953C249.938 68.7488 249.393 69.2819 248.785 69.5198C247.511 70.0174 246.138 69.1698 245.076 68.3059C244.015 67.4419 242.817 66.455 241.468 66.6463C240.575 66.7748 239.869 67.3873 239.047 67.7044C238.861 67.7768 238.669 67.8326 238.474 67.8712C239.17 66.1228 240.449 64.6732 242.091 63.7713C243.733 62.8695 245.636 62.5717 247.473 62.9292C249.309 63.2866 250.965 64.277 252.155 65.7302C253.345 67.1833 253.995 69.0086 253.994 70.8922C253.995 71.461 253.936 72.0283 253.818 72.5846C253.832 72.6228 253.845 72.6584 253.861 72.6967C254.176 73.5169 254.532 74.3589 254.844 75.0862L256.378 76.486C256.378 76.486 257.03 77.0328 258.007 77.853C260.133 79.6574 263.806 82.8343 265.701 84.7781C267.368 86.4951 267.889 93.1496 268.046 98.161Z" fill="black"/>
<path d="M238.952 62.7094C239.34 61.9138 239.533 61.0226 239.997 60.268C240.678 59.1744 241.867 58.4745 243.089 58.0507C246.279 56.9434 253.02 55.3359 255.034 58.0507C255.431 58.5975 255.759 59.2045 256.308 59.5817C256.726 59.8688 257.231 59.9918 257.689 60.2078C258.973 60.8148 259.793 62.138 260.23 63.4886C260.668 64.8392 260.798 66.2882 261.118 67.6798C261.528 69.4651 262.248 71.1574 262.964 72.8389C263.809 74.8237 264.704 76.8824 266.333 78.285C268.557 80.1988 269.048 82.9081 271.111 85.0078C273.555 87.5012 273.476 91.6159 272.216 94.883C272.051 95.3122 271.863 95.7606 271.929 96.2172C271.994 96.6738 272.33 97.0893 272.648 97.4529L273.984 98.9703C270.824 99.7386 267.248 98.0763 265.777 95.1591C265.323 94.2569 265.022 93.218 264.246 92.5755C263.551 92.0014 262.617 91.8647 261.751 91.6077C258.895 90.7547 256.5 88.1273 256.411 85.1309C256.367 83.7229 256.804 82.3149 256.606 80.9205C256.496 80.1245 256.183 79.3709 255.697 78.7333C254.95 77.7518 253.823 77.0929 253.215 75.9993C252.186 74.1703 252.968 71.7945 252.227 69.8315C251.999 69.23 251.543 68.6285 250.905 68.582C250.267 68.5356 249.721 69.0687 249.111 69.3065C247.84 69.8041 246.466 68.9593 245.405 68.0927C244.343 67.226 243.146 66.2417 241.794 66.4359C240.901 66.5616 240.198 67.174 239.375 67.4939C238.767 67.729 237.535 67.9395 237.002 67.4228C235.878 66.3812 238.482 63.6827 238.952 62.7094Z" fill="#591D4B"/>
<path opacity="0.1" d="M266.532 94.2569C266.075 93.3547 265.777 92.3158 265 91.676C264.305 91.1019 263.371 90.9624 262.503 90.7054C259.649 89.8552 257.255 87.2278 257.163 84.2314C257.119 82.8234 257.556 81.4126 257.361 80.0183C257.247 79.2274 256.934 78.4791 256.451 77.8448C255.702 76.8633 254.575 76.2044 253.97 75.1108C252.941 73.2845 253.723 70.9087 252.979 68.9429C252.754 68.3442 252.295 67.7427 251.66 67.6935C251.024 67.6443 250.473 68.1829 249.865 68.4207C248.595 68.9183 247.218 68.0708 246.159 67.2068C245.101 66.3429 243.898 65.3559 242.549 65.5473C241.656 65.6758 240.95 66.2882 240.13 66.6054C239.522 66.8405 238.286 67.0537 237.754 66.537C236.636 65.4434 239.239 62.7504 239.706 61.7826C240.095 60.9843 240.287 60.0957 240.754 59.3412C240.779 59.3002 240.806 59.2591 240.833 59.2181C240.484 59.5095 240.182 59.8546 239.94 60.2406C239.476 60.9952 239.283 61.881 238.895 62.6821C238.425 63.6499 235.821 66.3511 236.943 67.4365C237.486 67.956 238.707 67.7427 239.315 67.5076C240.13 67.1877 240.841 66.5753 241.734 66.4495C243.092 66.2554 244.286 67.2424 245.345 68.1063C246.404 68.9703 247.788 69.8178 249.053 69.3202C249.662 69.0824 250.194 68.5465 250.845 68.5957C251.497 68.6449 251.931 69.2437 252.167 69.8451C252.909 71.8081 252.127 74.184 253.156 76.013C253.764 77.0875 254.89 77.76 255.637 78.747C256.123 79.3846 256.436 80.1382 256.546 80.9342C256.745 82.3285 256.307 83.7365 256.351 85.1445C256.441 88.1519 258.835 90.7683 261.691 91.6213C262.552 91.8783 263.491 92.015 264.186 92.5892C264.965 93.2316 265.272 94.2706 265.717 95.1728C267.189 98.0899 270.764 99.7522 273.924 98.9839L273.294 98.2676C270.555 98.3087 267.783 96.7394 266.532 94.2569Z" fill="black"/>
<path opacity="0.1" d="M247.815 81.779C247.46 82.3258 246.442 85.1254 245.592 87.5696C244.797 87.2579 244.074 85.2703 244.074 85.2703L248.315 79.1954C248.749 79.7969 248.464 80.7948 247.815 81.779Z" fill="black"/>
<path d="M247.978 81.6149C247.623 82.1617 246.605 84.9613 245.755 87.4055C244.959 87.0966 244.237 85.1062 244.237 85.1062L248.478 79.0341C248.912 79.6328 248.627 80.6334 247.978 81.6149Z" fill="#DCE7FF"/>
<path d="M223.322 109.545L220.971 102.079C220.943 101.991 220.933 101.899 220.941 101.808C220.948 101.716 220.974 101.627 221.015 101.546C221.057 101.464 221.115 101.392 221.185 101.333C221.254 101.274 221.335 101.229 221.422 101.201C221.597 101.146 221.786 101.163 221.949 101.248C222.112 101.333 222.234 101.479 222.291 101.655L224.642 109.113L224.408 110.675L223.322 109.545Z" fill="#BE8B87"/>
<path opacity="0.1" d="M221.194 101.423C221.369 101.367 221.559 101.383 221.723 101.468C221.886 101.553 222.009 101.7 222.065 101.877L224.416 109.335L224.24 110.505L224.411 110.685L224.644 109.124L222.28 101.666C222.224 101.49 222.101 101.344 221.938 101.259C221.775 101.174 221.586 101.157 221.411 101.212C221.264 101.26 221.137 101.356 221.05 101.486C221.096 101.461 221.144 101.44 221.194 101.423Z" fill="white"/>
<path d="M223.322 109.545L224.642 109.124L224.449 110.404L224.408 110.685L224.023 110.281L223.322 109.545Z" fill="#EFC8C4"/>
<path d="M224.023 110.281C224.046 110.252 224.074 110.227 224.107 110.21C224.126 110.198 224.148 110.191 224.171 110.191C224.193 110.191 224.215 110.198 224.234 110.21C224.253 110.232 224.268 110.257 224.281 110.284C224.299 110.314 224.323 110.339 224.352 110.359C224.381 110.378 224.414 110.391 224.449 110.396L224.408 110.669L224.023 110.281Z" fill="#727A9C"/>
<path d="M220.958 104.731C220.958 104.731 225.673 104.703 224.563 106.724C223.453 108.744 221.718 108.988 221.718 108.988L220.958 104.731Z" fill="#FFB0B1"/>
<path d="M191.629 14.0582H191.426C183.325 14.0582 176.16 18.3751 172.039 24.7453C167.918 18.3751 160.754 14.0582 152.652 14.0582H152.449C146.369 14.1165 140.558 16.5887 136.278 20.9376C131.999 25.2865 129.596 31.1606 129.593 37.2834C129.593 44.8866 132.899 55.6749 139.347 64.5521C151.632 81.4673 172.039 96.2664 172.039 96.2664C172.039 96.2664 192.446 81.47 204.728 64.5521C211.179 55.6749 214.483 44.8866 214.483 37.2834C214.479 31.161 212.077 25.2874 207.798 20.9386C203.519 16.5898 197.708 14.1172 191.629 14.0582ZM188.716 65.8535C187.794 65.85 186.894 65.5656 186.134 65.0376C185.375 64.5097 184.792 63.7629 184.462 62.8953H179.619C179.3 62.8933 178.99 62.7911 178.731 62.6029C178.473 62.4147 178.279 62.1499 178.177 61.8455L176.69 57.3317L171.982 73.8969C171.89 74.2158 171.698 74.4961 171.435 74.6958C171.172 74.8954 170.851 75.0036 170.521 75.0042H170.426C170.082 74.9874 169.755 74.8523 169.498 74.6214C169.241 74.3905 169.07 74.0778 169.015 73.7356L164.163 44.3507L160.618 61.7389C160.536 62.0692 160.348 62.3626 160.081 62.5722C159.815 62.7818 159.487 62.8956 159.149 62.8953H152.327C152.122 62.9041 151.918 62.871 151.726 62.7982C151.535 62.7254 151.36 62.6143 151.212 62.4717C151.065 62.329 150.947 62.1578 150.867 61.9682C150.786 61.7786 150.745 61.5745 150.745 61.3684C150.745 61.1623 150.786 60.9583 150.867 60.7687C150.947 60.5791 151.065 60.4078 151.212 60.2651C151.36 60.1225 151.535 60.0114 151.726 59.9386C151.918 59.8658 152.122 59.8328 152.327 59.8415H157.955L162.977 36.4632C163.059 36.1175 163.259 35.8115 163.54 35.5973C163.822 35.3831 164.169 35.2741 164.521 35.289C164.874 35.3038 165.211 35.4416 165.474 35.6787C165.737 35.9158 165.91 36.2376 165.963 36.5889L170.918 66.5643L175.137 51.7434C175.225 51.4313 175.41 51.1561 175.666 50.959C175.922 50.7619 176.234 50.6535 176.557 50.6498H176.586C176.905 50.6499 177.216 50.7515 177.475 50.94C177.733 51.1285 177.926 51.3944 178.025 51.6997L180.716 59.8497H184.402C184.665 59.0477 185.142 58.3342 185.781 57.7881C186.42 57.2419 187.197 56.8842 188.025 56.7545C188.854 56.6248 189.702 56.7282 190.476 57.0531C191.249 57.3781 191.919 57.912 192.411 58.596C192.902 59.28 193.196 60.0875 193.261 60.9293C193.326 61.7711 193.158 62.6145 192.777 63.3664C192.395 64.1183 191.815 64.7495 191.1 65.1903C190.385 65.6311 189.563 65.8644 188.724 65.8644L188.716 65.8535Z" fill="#CF6F80"/>
</g>
<defs>
<linearGradient id="paint0_linear_42_196" x1="96.7377" y1="211.848" x2="96.7377" y2="43.6153" gradientUnits="userSpaceOnUse">
<stop stop-color="#808080" stop-opacity="0.25"/>
<stop offset="0.54" stop-color="#808080" stop-opacity="0.12"/>
<stop offset="1" stop-color="#808080" stop-opacity="0.1"/>
</linearGradient>
<linearGradient id="paint1_linear_42_196" x1="60599.3" y1="126934" x2="60599.3" y2="40578.6" gradientUnits="userSpaceOnUse">
<stop stop-color="#808080" stop-opacity="0.25"/>
<stop offset="0.54" stop-color="#808080" stop-opacity="0.12"/>
<stop offset="1" stop-color="#808080" stop-opacity="0.1"/>
</linearGradient>
<clipPath id="clip0_42_196">
<rect width="300" height="214" fill="white"/>
</clipPath>
</defs>
</svg>
