<svg width="138" height="125" viewBox="0 0 138 125" fill="none" xmlns="http://www.w3.org/2000/svg">
<path d="M118.46 34.4684C116.831 30.6586 114.481 27.2063 111.544 24.3046C108.604 21.3942 105.138 19.0814 101.334 17.4919C97.3901 15.8372 93.1596 14.9902 88.8886 15.0001C82.8966 15.0001 77.0504 16.6572 71.97 19.7874C70.7545 20.5361 69.5999 21.3586 68.506 22.2547C67.4121 21.3586 66.2575 20.5361 65.0421 19.7874C59.9616 16.6572 54.1155 15.0001 48.1235 15.0001C43.8087 15.0001 39.6277 15.8348 35.6776 17.4919C31.8612 19.0877 28.4216 21.3831 25.4681 24.3046C22.5267 27.203 20.1771 30.6562 18.5524 34.4684C16.8629 38.4332 16 42.6436 16 46.9767C16 51.0643 16.8265 55.3237 18.4673 59.6568C19.8407 63.278 21.8097 67.0341 24.3256 70.8271C28.3122 76.8297 33.7937 83.09 40.6 89.4362C51.8791 99.9559 63.0488 107.223 63.5228 107.517L66.4033 109.383C67.6795 110.206 69.3203 110.206 70.5965 109.383L73.4771 107.517C73.9511 107.21 85.1086 99.9559 96.3998 89.4362C103.206 83.09 108.688 76.8297 112.674 70.8271C115.19 67.0341 117.171 63.278 118.533 59.6568C120.173 55.3237 121 51.0643 121 46.9767C121.012 42.6436 120.149 38.4332 118.46 34.4684Z" fill="#CF6F80"/>
<path d="M108.968 35.3698C107.664 32.3621 105.785 29.6365 103.435 27.3457C101.083 25.0481 98.3106 23.2222 95.2675 21.9673C92.1121 20.6609 88.7277 19.9922 85.3108 20.0001C80.5172 20.0001 75.8403 21.3083 71.776 23.7795C70.8036 24.3706 69.8799 25.0199 69.0048 25.7274C68.1297 25.0199 67.206 24.3706 66.2337 23.7795C62.1693 21.3083 57.4924 20.0001 52.6988 20.0001C49.247 20.0001 45.9022 20.659 42.7421 21.9673C39.689 23.2271 36.9372 25.0393 34.5745 27.3457C32.2214 29.634 30.3417 32.3601 29.0419 35.3698C27.6904 38.4999 27 41.8239 27 45.2447C27 48.4718 27.6612 51.8345 28.9738 55.2554C30.0726 58.1142 31.6478 61.0796 33.6605 64.0741C36.8497 68.8129 41.235 73.7552 46.68 78.7654C55.7033 87.0705 64.639 92.8074 65.0182 93.04L67.3227 94.513C68.3436 95.1623 69.6563 95.1623 70.6772 94.513L72.9817 93.04C73.3609 92.7977 82.2869 87.0705 91.3199 78.7654C96.7649 73.7552 101.15 68.8129 104.339 64.0741C106.352 61.0796 107.937 58.1142 109.026 55.2554C110.339 51.8345 111 48.4718 111 45.2447C111.01 41.8239 110.319 38.4999 108.968 35.3698Z" fill="#E4F0FA"/>
</svg>
